<svg width="75" height="73" viewBox="0 0 75 73" fill="none" xmlns="http://www.w3.org/2000/svg">
<path d="M38.3438 72.6875C28.2094 72.6875 20.0156 64.4937 20.0156 54.3594C20.0156 44.225 28.2094 36.0312 38.3438 36.0312C48.4781 36.0312 56.6719 44.225 56.6719 54.3594C56.6719 64.4937 48.4781 72.6875 38.3438 72.6875ZM38.3438 38.1875C29.3953 38.1875 22.1719 45.4109 22.1719 54.3594C22.1719 63.3078 29.3953 70.5312 38.3438 70.5312C47.2922 70.5312 54.5156 63.3078 54.5156 54.3594C54.5156 45.4109 47.2922 38.1875 38.3438 38.1875Z" fill="#00C1B2"/>
<path d="M65.2969 51.125H55.5938V49.8438H65.2969C67.1297 49.8438 69.3438 47.5672 69.3438 45.7344V13.3906C69.3438 11.5578 67.1297 9.34375 65.2969 9.34375H11.3438C8.41228 9.34375 7.34375 11.5578 7.34375 13.3906V30.3438V45.8438C7.34375 47.6766 9.55781 49.8438 11.3906 49.8438H21.0938V51.125H11.3906C8.37188 51.125 6 48.7531 6 45.7344V13.3906C6 10.3719 8.37188 8 11.3906 8H65.2969C68.3156 8 70.6875 10.3719 70.6875 13.3906V45.7344C70.6875 48.7531 68.3156 51.125 65.2969 51.125Z" fill="#00C1B2"/>
<path d="M24.3281 27.4062C20.1234 27.4062 16.7812 24.0641 16.7812 19.8594C16.7812 15.6547 20.1234 12.3125 24.3281 12.3125C28.5328 12.3125 31.875 15.6547 31.875 19.8594C31.875 24.0641 28.5328 27.4062 24.3281 27.4062ZM24.3281 14.4688C21.3094 14.4688 18.9375 16.8406 18.9375 19.8594C18.9375 22.8781 21.3094 25.25 24.3281 25.25C27.3469 25.25 29.7188 22.8781 29.7188 19.8594C29.7188 16.8406 27.3469 14.4688 24.3281 14.4688Z" fill="#00C1B2"/>
<path d="M24.3266 44.6555H11.2812L12.3594 31.9336C12.4672 30.6398 13.3297 29.5617 14.5156 29.1305L20.5531 27.082L24.3266 34.6289L28.1 27.082L34.1375 29.1305C35.3234 29.5617 36.1859 30.6398 36.2938 31.9336L36.725 37.0008L34.5688 37.2164L34.1375 32.1492C34.1375 31.718 33.8141 31.3945 33.3828 31.1789L29.1781 29.7773L24.3266 39.4805L19.475 29.7773L15.2703 31.1789C14.8391 31.2867 14.6234 31.718 14.5156 32.1492L13.6531 42.4992H24.3266V44.6555Z" fill="#00C1B2"/>
<path d="M39.4219 14.4688H64.2188V16.625H39.4219V14.4688Z" fill="#00C1B2"/>
<path d="M39.4219 20.9375H60.9844V23.0938H39.4219V20.9375Z" fill="#00C1B2"/>
<path d="M39.4219 28.4844H64.2188V30.6406H39.4219V28.4844Z" fill="#00C1B2"/>
<path d="M50.2031 51.125V48.9688L38.3438 42.5L26.4844 48.9688V51.125H28.6406V58.6719H27.5625V60.8281H26.4844V62.9844H50.2031V60.8281H49.125V58.6719H48.0469V51.125H50.2031ZM41.5781 58.6719H39.4219V51.125H41.5781V58.6719ZM35.1094 51.125H37.2656V58.6719H35.1094V51.125ZM30.7969 51.125H32.9531V58.6719H30.7969V51.125ZM45.8906 58.6719H43.7344V51.125H45.8906V58.6719Z" fill="#00C1B2"/>
<path d="M36.7922 69.2676C19.8391 70.922 0.5 63.8336 0.5 45.0815C13.9937 38.1048 27.3589 0 46.1172 0C64.8755 0 75 13.248 75 32C75 50.752 56.2534 67.3686 36.7922 69.2676Z" fill="#00C1B2" fill-opacity="0.11"/>
</svg>
