<svg width="290" height="298" viewBox="0 0 290 298" fill="none" xmlns="http://www.w3.org/2000/svg">
<path d="M284.215 277.751C284.215 285.524 221.616 291.855 144.37 291.855C67.16 291.855 4.56152 285.524 4.56152 277.751C4.56152 269.977 67.16 263.646 144.37 263.646C221.616 263.646 284.215 269.977 284.215 277.751Z" fill="#00C1B2" fill-opacity="0.1"/>
<path d="M75.652 231.255C71.0165 231.292 73.2415 246.359 73.2415 246.359C73.2415 246.359 66.3067 230.07 61.0037 229.478C55.6635 228.886 60.3362 243.101 60.3362 243.101C60.3362 243.101 46.5037 227.664 42.9436 228.553C39.3835 229.478 45.9103 238.103 45.9103 238.103C45.9103 238.103 22.9922 226.591 20.9525 230.959C18.95 235.327 42.5727 245.322 42.5727 245.322C42.5727 245.322 31.7441 245.914 33.3387 249.246C34.9704 252.541 55.7377 253.059 55.7377 253.059C55.7377 253.059 41.831 258.723 45.7249 262.388C49.6188 266.052 66.5663 260.759 66.5663 260.759C66.5663 260.759 53.5868 268.829 56.5906 272.383C59.5574 275.973 86.9628 261.462 86.9628 261.462C86.9628 261.462 80.3246 231.218 75.652 231.255Z" fill="#00C1B2"/>
<path d="M77.1351 243.396L78.5072 248.653C78.9522 250.43 79.4343 252.17 79.9164 253.909L81.1773 258.5L76.8755 256.427L69.8666 253.132C69.0507 250.985 68.2349 248.838 67.3448 246.691L66.0098 243.433C65.5277 242.36 65.0827 241.286 64.5635 240.213C64.8973 241.36 65.2681 242.471 65.6019 243.581L66.7144 246.95C67.3819 248.838 68.0494 250.726 68.754 252.614L60.2988 248.653L55.6632 246.543C54.7732 245.025 53.8461 243.507 52.8819 242.026L51.3985 239.694C50.8794 238.954 50.3602 238.177 49.8039 237.473C50.2118 238.288 50.6198 239.102 51.0277 239.916L52.3256 242.36C52.9561 243.544 53.6607 244.766 54.3282 245.95L43.6479 241.064C38.0852 238.584 32.4855 236.103 26.8857 233.697C32.3371 236.4 37.8627 239.065 43.3512 241.656L54.1057 246.691C52.6965 246.95 51.2873 247.246 49.9152 247.542C48.098 247.912 46.318 248.32 44.5379 248.838C46.3921 248.69 48.2093 248.431 50.0264 248.172C51.8435 247.949 53.6236 247.653 55.4407 247.32L59.9279 249.43L68.4944 253.354C66.5661 254.058 64.6377 254.761 62.7464 255.538C60.5584 256.39 58.3333 257.278 56.1824 258.278C58.4817 257.611 60.7067 256.908 62.9689 256.168C65.1939 255.427 67.3819 254.613 69.607 253.835L76.5788 257.019L80.9548 258.981L76.6159 261.017C74.9842 261.794 73.3154 262.535 71.6837 263.349C68.3832 264.941 65.1198 266.57 61.8563 268.236C65.2681 266.866 68.6057 265.422 71.9433 263.941C73.6492 263.238 75.2809 262.461 76.9497 261.72L81.9561 259.462L81.9932 259.425L84.9599 260.758C87.7412 261.98 90.5226 263.238 93.341 264.423C90.6338 263.053 87.8525 261.72 85.1453 260.388L82.1786 258.981V258.944L80.6581 253.724C80.1389 251.984 79.6568 250.208 79.1377 248.468L77.543 243.285C76.9868 241.545 76.4305 239.805 75.8742 238.102C76.2451 239.879 76.7272 241.619 77.1351 243.396Z" fill="white"/>
<g opacity="0.1">
<path d="M43.3884 236.882C37.4178 234.031 22.5841 227.479 20.9524 230.959C20.3219 232.291 22.1762 234.179 24.9946 236.178C30.2976 235.216 36.6391 235.401 43.3884 236.882Z" fill="#0046A0"/>
<path d="M60.2988 242.952C71.1646 248.468 79.2861 256.093 82.8832 263.571C85.3679 262.313 86.9625 261.461 86.9625 261.461C86.9625 261.461 80.3244 231.217 75.6518 231.254C71.0162 231.291 73.2413 246.358 73.2413 246.358C73.2413 246.358 66.3065 230.069 61.0034 229.477C55.9971 228.922 59.7797 241.36 60.2988 242.952Z" fill="#0046A0"/>
<path d="M45.3534 237.325C48.9135 238.214 52.5849 239.435 56.2192 241.027C57.5542 241.595 58.8522 242.199 60.113 242.841C58.2959 240.879 46.2435 227.738 42.943 228.552C40.0133 229.292 43.8701 235.215 45.3534 237.325Z" fill="#0046A0"/>
</g>
<path d="M240.566 233.143C241.048 228.516 225.807 229.071 225.807 229.071C225.807 229.071 242.791 223.999 243.941 218.78C245.127 213.56 230.442 216.633 230.442 216.633C230.442 216.633 247.353 204.601 246.833 200.974C246.314 197.309 237.006 202.862 237.006 202.862C237.006 202.862 250.987 181.391 246.87 178.911C242.717 176.393 230.182 198.753 230.182 198.753C230.182 198.753 230.776 187.943 227.29 189.202C223.841 190.423 221.06 210.969 221.06 210.969C221.06 210.969 216.943 196.568 212.864 200.048C208.785 203.491 212.197 220.853 212.197 220.853C212.197 220.853 205.596 207.156 201.702 209.71C197.845 212.301 209.267 241.065 209.267 241.065C209.267 241.065 240.084 237.77 240.566 233.143Z" fill="#00C1B2"/>
<path d="M228.328 233.29L222.951 234.031C221.134 234.29 219.354 234.586 217.537 234.882L212.864 235.623L215.386 231.588L219.428 224.998C221.653 224.406 223.878 223.814 226.103 223.184L229.478 222.222C230.627 221.852 231.74 221.519 232.853 221.148C231.703 221.333 230.553 221.593 229.404 221.815L225.955 222.555C223.952 222.999 222.024 223.481 220.058 223.962L224.916 216.003L227.512 211.635C229.144 210.894 230.776 210.154 232.37 209.376L234.818 208.118C235.634 207.674 236.45 207.266 237.228 206.822C236.338 207.118 235.486 207.451 234.633 207.748L232.074 208.747C230.813 209.265 229.552 209.821 228.291 210.376L234.299 200.307C237.414 195.05 240.492 189.794 243.496 184.463C240.195 189.608 236.969 194.791 233.743 199.937L227.549 210.08C227.438 208.636 227.327 207.229 227.179 205.786C226.993 203.972 226.771 202.158 226.474 200.344C226.437 202.195 226.474 204.009 226.511 205.86C226.548 207.674 226.659 209.487 226.771 211.301L224.175 215.559L219.391 223.592C218.872 221.63 218.39 219.631 217.833 217.669C217.203 215.373 216.535 213.115 215.794 210.857C216.202 213.189 216.684 215.522 217.166 217.817C217.648 220.112 218.204 222.37 218.76 224.628L214.792 231.254L212.382 235.364L210.861 230.847C210.268 229.107 209.675 227.404 209.044 225.665C207.821 222.259 206.597 218.816 205.262 215.41C206.263 218.927 207.338 222.407 208.414 225.887C208.97 227.627 209.564 229.366 210.12 231.106L211.826 236.289V236.326L210.194 239.139C208.673 241.768 207.116 244.396 205.633 247.061C207.301 244.507 208.896 241.916 210.528 239.362L212.271 236.585H212.308L217.685 235.66C219.465 235.326 221.245 235.03 223.025 234.697L228.402 233.698C230.182 233.327 231.962 232.994 233.743 232.587C231.925 232.772 230.145 233.031 228.328 233.29Z" fill="white"/>
<g opacity="0.1">
<path d="M238.488 200.53C241.974 194.866 250.133 180.873 246.869 178.911C245.571 178.133 243.495 179.725 241.233 182.316C241.603 187.684 240.713 193.977 238.488 200.53Z" fill="#0046A0"/>
<path d="M230.627 216.596C223.915 226.777 215.422 233.995 207.635 236.772C208.599 239.363 209.266 241.066 209.266 241.066C209.266 241.066 240.084 237.771 240.566 233.144C241.048 228.516 225.806 229.072 225.806 229.072C225.806 229.072 242.791 224 243.94 218.781C245.053 213.894 232.259 216.3 230.627 216.596Z" fill="#0046A0"/>
<path d="M237.821 202.417C236.561 205.86 234.929 209.339 232.963 212.782C232.246 214.041 231.505 215.262 230.738 216.447C232.889 214.855 247.315 204.342 246.833 200.973C246.425 197.975 240.121 201.158 237.821 202.417Z" fill="#0046A0"/>
</g>
<path d="M34.8589 186.574C35.6748 188.499 36.7502 190.35 37.7886 192.163C40.4587 196.717 43.5738 200.974 47.0226 204.972C51.7323 210.377 57.1096 215.226 63.1172 219.187C70.3116 223.925 78.3218 227.331 86.74 229.145C97.1607 231.403 107.952 231.107 118.373 229.145C119.881 228.849 121.389 228.516 122.897 228.146C123.342 228.034 123.12 227.331 122.638 227.442C111.994 229.996 100.869 230.848 90.0405 229.034C81.474 227.59 73.2042 224.518 65.7873 220.001C59.5571 216.226 53.9574 211.487 49.0623 206.119C45.3538 202.084 42.0533 197.679 39.1607 193.015C37.8628 190.868 36.7131 188.573 35.6006 186.426C35.5759 186.401 35.5635 186.376 35.5635 186.352C35.3781 185.907 34.6735 186.129 34.8589 186.574Z" fill="#11720E"/>
<path d="M38.7157 193.644C36.8615 192.533 35.6006 191.164 34.4881 189.72C33.425 188.289 32.5597 186.771 31.8922 185.167C31.2 183.538 30.7302 181.835 30.483 180.058C30.2605 178.281 30.1492 176.43 30.6684 174.32C32.5226 175.431 33.7835 176.801 34.896 178.244C35.9591 179.676 36.8244 181.206 37.492 182.835C38.1595 184.439 38.6292 186.129 38.9012 187.906C39.1237 189.72 39.1978 191.571 38.7157 193.644Z" fill="#11720E"/>
<path d="M31.373 175.986C32.0035 177.282 32.5968 178.578 33.1902 179.873C33.7464 181.206 34.3027 182.539 34.859 183.834C35.4152 185.167 35.9344 186.5 36.4536 187.832C36.9728 189.165 37.492 190.498 37.937 191.867C37.3066 190.572 36.7132 189.276 36.1569 187.943C35.5636 186.648 35.0073 185.315 34.4511 184.019C33.9319 182.687 33.3756 181.354 32.8564 180.021C32.3372 178.689 31.8181 177.356 31.373 175.986Z" fill="white"/>
<path opacity="0.1" d="M34.8965 178.244C33.7839 176.801 32.5231 175.431 30.6688 174.32C30.6194 174.592 30.57 174.863 30.5205 175.135C31.596 176.023 32.486 177.023 33.2648 178.022C34.3526 179.478 35.2302 181.008 35.8977 182.612C36.5653 184.217 37.0226 185.919 37.2699 187.721C37.4924 189.276 37.5665 190.868 37.2699 192.645C37.6902 192.99 38.1723 193.323 38.7162 193.644C39.1983 191.571 39.1241 189.72 38.9016 187.906C38.6296 186.129 38.1599 184.439 37.4924 182.835C36.8249 181.206 35.9596 179.676 34.8965 178.244Z" fill="white"/>
<path d="M42.5352 199.197C41.3856 197.383 40.8664 195.606 40.4956 193.829C40.1495 192.077 40.0259 190.325 40.1248 188.573C40.2237 186.845 40.5451 185.117 41.089 183.39C41.6452 181.687 42.3869 179.984 43.7961 178.318C44.9457 180.132 45.502 181.909 45.8728 183.686C46.1942 185.438 46.3055 187.19 46.2066 188.943C46.1077 190.67 45.7863 192.398 45.2424 194.125C44.6491 195.828 43.9074 197.531 42.5352 199.197Z" fill="#11720E"/>
<path d="M43.6848 180.096C43.6848 181.539 43.6477 182.983 43.6106 184.39C43.5364 185.834 43.4623 187.277 43.3881 188.684C43.2768 190.128 43.2027 191.534 43.0914 192.978C42.9802 194.385 42.8318 195.829 42.6835 197.235C42.6464 195.829 42.6835 194.385 42.7577 192.941C42.7947 191.534 42.8689 190.091 42.9431 188.647C43.0543 187.24 43.1285 185.797 43.2398 184.39C43.3881 182.946 43.4994 181.539 43.6848 180.096Z" fill="white"/>
<path opacity="0.1" d="M45.8732 183.686C45.5023 181.909 44.946 180.132 43.7964 178.318C43.5986 178.516 43.4256 178.726 43.2772 178.948C43.8706 180.243 44.2414 181.502 44.501 182.761C44.8472 184.537 44.9584 186.302 44.8348 188.054C44.7359 189.782 44.4145 191.509 43.8706 193.237C43.3885 194.718 42.7581 196.198 41.6826 197.642C41.9298 198.16 42.2142 198.679 42.5356 199.197C43.9077 197.531 44.6494 195.828 45.2427 194.125C45.7866 192.398 46.108 190.67 46.2069 188.943C46.3058 187.19 46.1946 185.438 45.8732 183.686Z" fill="white"/>
<path d="M42.4238 198.864C40.4212 199.679 38.567 199.901 36.7498 199.938C34.9698 199.963 33.2268 199.765 31.5209 199.346C29.8151 198.951 28.1586 198.334 26.5516 197.495C24.9941 196.643 23.4366 195.607 22.0273 193.978C24.0299 193.126 25.8841 192.904 27.6642 192.867C29.4689 192.843 31.2243 193.04 32.9302 193.46C34.636 193.854 36.2801 194.471 37.8624 195.311C39.457 196.199 41.0146 197.198 42.4238 198.864Z" fill="#11720E"/>
<path d="M23.7705 194.385C25.2168 194.644 26.5889 194.94 27.9981 195.236C29.4073 195.532 30.8165 195.866 32.1887 196.162C33.5979 196.532 34.97 196.865 36.3792 197.235C37.7513 197.605 39.1234 197.976 40.4956 198.383C39.0864 198.161 37.6772 197.865 36.305 197.568C34.8958 197.272 33.4866 196.939 32.1145 196.606C30.7053 196.273 29.2961 195.94 27.924 195.569C26.5518 195.199 25.1426 194.829 23.7705 194.385Z" fill="white"/>
<path opacity="0.1" d="M27.6642 192.867C25.8841 192.904 24.0299 193.126 22.0273 193.978C22.2004 194.175 22.3858 194.373 22.5836 194.57C23.9557 194.2 25.2537 194.089 26.5516 194.052C28.3564 194.027 30.1117 194.225 31.8176 194.644C33.5235 195.039 35.1676 195.656 36.7498 196.495C38.122 197.235 39.4941 198.124 40.755 199.42C41.2989 199.272 41.8551 199.086 42.4238 198.864C41.0146 197.198 39.457 196.199 37.8624 195.311C36.2801 194.471 34.636 193.854 32.9302 193.46C31.2243 193.04 29.4689 192.843 27.6642 192.867Z" fill="white"/>
<path d="M50.8419 208.414C49.3956 206.785 48.6169 205.119 47.9493 203.416C47.356 201.738 46.9728 200.023 46.7997 198.271C46.6019 196.543 46.639 194.791 46.911 193.014C47.2076 191.237 47.6897 189.423 48.7652 187.572C50.2115 189.164 51.0273 190.83 51.6578 192.533C52.2759 194.236 52.6714 195.951 52.8445 197.678C53.0175 199.406 52.9681 201.158 52.6961 202.935C52.3995 204.749 51.9545 206.526 50.8419 208.414Z" fill="#11720E"/>
<path d="M48.9502 189.35C49.1727 190.793 49.3581 192.2 49.5435 193.607C49.729 195.05 49.8773 196.457 50.0256 197.864C50.1369 199.308 50.2852 200.714 50.3965 202.158C50.5077 203.602 50.619 205.008 50.6561 206.452C50.4336 205.046 50.2481 203.602 50.0627 202.195C49.8773 200.788 49.729 199.345 49.5806 197.938C49.4694 196.494 49.321 195.087 49.2098 193.644C49.0985 192.237 48.9873 190.793 48.9502 189.35Z" fill="white"/>
<path opacity="0.1" d="M51.658 192.533C51.0275 190.83 50.2117 189.164 48.7654 187.572C48.617 187.819 48.4934 188.054 48.3945 188.276C49.1733 189.46 49.7296 190.645 50.1746 191.866C50.7927 193.569 51.1882 195.284 51.3613 197.012C51.5343 198.74 51.4849 200.492 51.2129 202.269C50.9534 203.823 50.5825 205.378 49.7667 207.007C50.0881 207.476 50.4465 207.945 50.8421 208.414C51.9546 206.526 52.3996 204.749 52.6963 202.935C52.9683 201.158 53.0177 199.406 52.8447 197.678C52.6716 195.951 52.276 194.236 51.658 192.533Z" fill="white"/>
<path d="M50.6568 208.08C48.8397 209.191 47.0225 209.709 45.2425 210.042C43.4624 210.338 41.7071 210.412 39.9765 210.264C38.2212 210.141 36.4906 209.795 34.7847 209.228C33.0788 208.636 31.41 207.858 29.7412 206.451C31.5954 205.304 33.3755 204.823 35.1555 204.452C36.9356 204.156 38.7033 204.082 40.4586 204.23C42.1892 204.354 43.9075 204.712 45.6133 205.304C47.3192 205.896 49.0251 206.674 50.6568 208.08Z" fill="#11720E"/>
<path d="M31.5586 206.6C33.0049 206.6 34.4141 206.674 35.8604 206.748C37.3067 206.822 38.7159 206.933 40.1622 207.044C41.5714 207.155 43.0177 207.266 44.4269 207.414C45.8732 207.562 47.2824 207.71 48.6916 207.895C47.2824 207.895 45.8361 207.821 44.3898 207.747C42.9806 207.673 41.5343 207.562 40.1251 207.488C38.6788 207.34 37.2696 207.229 35.8233 207.081C34.4141 206.933 32.9678 206.785 31.5586 206.6Z" fill="white"/>
<path opacity="0.1" d="M35.1555 204.452C33.3755 204.823 31.5954 205.304 29.7412 206.451C29.9637 206.624 30.1862 206.797 30.4087 206.97C31.7067 206.377 32.9676 206.044 34.2284 205.822C36.0085 205.501 37.7762 205.415 39.5315 205.563C41.2621 205.711 42.9803 206.069 44.6862 206.637C46.1696 207.155 47.653 207.821 49.0993 208.895C49.6184 208.673 50.1376 208.401 50.6568 208.08C49.0251 206.674 47.3192 205.896 45.6133 205.304C43.9075 204.712 42.1892 204.354 40.4586 204.23C38.7033 204.082 36.9356 204.156 35.1555 204.452Z" fill="white"/>
<path d="M60.7809 217.003C59.1121 215.633 58.0366 214.116 57.1466 212.561C56.2566 210.981 55.5891 209.353 55.1441 207.674C54.699 205.996 54.4642 204.256 54.4395 202.455C54.4395 200.641 54.6249 198.79 55.4036 196.754C57.0724 198.124 58.1479 199.641 59.075 201.233C59.9403 202.788 60.5955 204.417 61.0405 206.12C61.4855 207.798 61.7204 209.538 61.7451 211.339C61.708 213.153 61.5597 215.004 60.7809 217.003Z" fill="#11720E"/>
<path d="M55.8857 198.531C56.3308 199.864 56.7387 201.234 57.1466 202.603C57.5545 204.01 57.8883 205.38 58.2962 206.749C58.63 208.156 59.0008 209.526 59.3346 210.932C59.6684 212.302 60.0021 213.709 60.2617 215.116C59.8167 213.746 59.4088 212.376 59.0008 211.007C58.5929 209.637 58.2221 208.267 57.8512 206.86C57.5175 205.491 57.1466 204.084 56.8129 202.714C56.4791 201.308 56.1453 199.938 55.8857 198.531Z" fill="white"/>
<path opacity="0.1" d="M59.0755 201.233C58.1484 199.641 57.0729 198.124 55.4041 196.754C55.3052 197.025 55.2187 197.284 55.1445 197.531C56.1087 198.568 56.8504 199.678 57.4808 200.789C58.3709 202.368 59.026 203.997 59.4463 205.675C59.9161 207.378 60.1509 209.13 60.1509 210.932C60.1509 212.487 60.0397 214.079 59.4834 215.781C59.879 216.201 60.3116 216.608 60.7814 217.003C61.5601 215.004 61.7085 213.153 61.7456 211.339C61.7208 209.538 61.486 207.798 61.041 206.12C60.5959 204.417 59.9408 202.788 59.0755 201.233Z" fill="white"/>
<path d="M60.5582 216.707C58.8894 218.114 57.2206 218.892 55.5147 219.521C53.8088 220.088 52.0906 220.446 50.36 220.594C48.6046 220.742 46.837 220.668 45.0569 220.372C43.2768 220.039 41.4968 219.558 39.6426 218.447C41.2743 217.004 42.9802 216.226 44.6861 215.634C46.3919 215.042 48.1102 214.684 49.8408 214.56C51.5714 214.412 53.3267 214.486 55.1068 214.782C56.8868 215.116 58.704 215.597 60.5582 216.707Z" fill="#11720E"/>
<path d="M41.46 218.299C42.8692 218.077 44.2784 217.929 45.7247 217.744C47.1339 217.596 48.5802 217.485 49.9894 217.374C51.4357 217.263 52.8449 217.152 54.2912 217.041C55.7004 216.967 57.1467 216.892 58.593 216.855C57.1467 217.078 55.7375 217.226 54.3282 217.411C52.882 217.559 51.4727 217.67 50.0265 217.818C48.6172 217.892 47.171 218.04 45.7247 218.114C44.3155 218.188 42.8692 218.262 41.46 218.299Z" fill="white"/>
<path opacity="0.1" d="M44.6861 215.634C42.9802 216.226 41.2743 217.004 39.6426 218.447C39.8898 218.595 40.1247 218.731 40.3472 218.855C41.5339 218.077 42.7577 217.522 43.9815 217.115C45.6873 216.522 47.4056 216.152 49.1362 216.004C50.8915 215.856 52.6592 215.93 54.4393 216.226C55.9597 216.522 57.5173 216.93 59.1119 217.781C59.6063 217.46 60.0884 217.102 60.5582 216.707C58.704 215.597 56.8868 215.116 55.1068 214.782C53.3267 214.486 51.5714 214.412 49.8408 214.56C48.1102 214.684 46.3919 215.042 44.6861 215.634Z" fill="white"/>
<path d="M73.1668 224.147C71.2755 223.148 69.9405 221.852 68.7167 220.482C67.5795 219.1 66.6276 217.62 65.8612 216.04C65.0948 214.485 64.5262 212.832 64.1553 211.08C63.8216 209.303 63.6362 207.452 64.007 205.305C65.9354 206.341 67.2704 207.6 68.4571 208.97C69.6191 210.352 70.5709 211.832 71.3126 213.412C72.079 214.967 72.6477 216.632 73.0185 218.409C73.3523 220.186 73.5377 222.037 73.1668 224.147Z" fill="#11720E"/>
<path d="M64.7861 206.934C65.4907 208.192 66.1583 209.451 66.8258 210.709C67.4933 212.005 68.1237 213.301 68.7542 214.559C69.3846 215.855 69.978 217.151 70.5713 218.446C71.1647 219.742 71.758 221.038 72.3143 222.37C71.6097 221.149 70.9421 219.853 70.2746 218.594C69.6071 217.336 69.0138 216.04 68.3462 214.745C67.7529 213.449 67.1224 212.19 66.5291 210.858C65.9357 209.562 65.3424 208.266 64.7861 206.934Z" fill="white"/>
<path opacity="0.1" d="M68.4569 208.97C67.2702 207.6 65.9352 206.341 64.0068 205.305C63.9573 205.576 63.9202 205.848 63.8955 206.119C65.0451 206.971 65.9722 207.896 66.8252 208.858C67.9872 210.241 68.939 211.721 69.6807 213.301C70.4471 214.856 71.0157 216.521 71.3866 218.298C71.6832 219.816 71.8687 221.408 71.6461 223.222C72.1159 223.543 72.6227 223.851 73.1666 224.147C73.5375 222.037 73.352 220.186 73.0183 218.409C72.6474 216.632 72.0788 214.967 71.3124 213.412C70.5707 211.832 69.6189 210.352 68.4569 208.97Z" fill="white"/>
<path d="M72.8702 223.888C71.5352 225.591 70.0518 226.664 68.4942 227.627C66.912 228.515 65.2803 229.194 63.5991 229.663C61.9179 230.156 60.1873 230.428 58.4073 230.477C56.5901 230.477 54.7359 230.329 52.6963 229.589C54.0313 227.886 55.5518 226.812 57.1093 225.887C58.6669 224.974 60.2862 224.283 61.9674 223.814C63.6485 223.345 65.3915 223.086 67.1963 223.036C69.0134 222.999 70.8676 223.148 72.8702 223.888Z" fill="#11720E"/>
<path d="M54.4395 229.108C55.7745 228.626 57.1466 228.182 58.5187 227.775C59.8909 227.331 61.263 226.961 62.6351 226.553C64.0443 226.183 65.4164 225.776 66.7886 225.443C68.1978 225.073 69.5699 224.74 70.9791 224.443C69.6441 224.925 68.2719 225.332 66.8998 225.776C65.5277 226.183 64.1556 226.59 62.7834 226.998C61.3742 227.368 60.0021 227.738 58.63 228.108C57.2208 228.441 55.8487 228.812 54.4395 229.108Z" fill="white"/>
<path opacity="0.1" d="M57.1093 225.887C55.5518 226.812 54.0313 227.886 52.6963 229.589C52.9682 229.687 53.2278 229.774 53.4751 229.848C54.5134 228.848 55.5889 228.108 56.7014 227.442C58.2589 226.553 59.8783 225.875 61.5595 225.406C63.2406 224.937 64.9836 224.665 66.7884 224.591C68.3459 224.591 69.9776 224.702 71.6835 225.221C72.1038 224.826 72.4994 224.381 72.8702 223.888C70.8676 223.148 69.0134 222.999 67.1963 223.036C65.3915 223.086 63.6485 223.345 61.9674 223.814C60.2862 224.283 58.6669 224.974 57.1093 225.887Z" fill="white"/>
<path d="M84.8489 228.516C82.8834 227.628 81.4371 226.443 80.1763 225.184C78.9154 223.901 77.8399 222.507 76.9499 221.001C76.0599 219.496 75.3676 217.879 74.8732 216.152C74.4282 214.375 74.0944 212.561 74.3169 210.414C76.2824 211.265 77.7287 212.45 79.0266 213.746C80.2875 215.029 81.3506 216.423 82.2159 217.929C83.1059 219.434 83.7982 221.051 84.2926 222.778C84.7376 224.518 85.0714 226.369 84.8489 228.516Z" fill="#11720E"/>
<path d="M75.207 211.969C76.0229 213.153 76.7646 214.375 77.5433 215.597C78.285 216.818 78.9896 218.04 79.7313 219.298C80.4359 220.52 81.1776 221.779 81.8451 223C82.5497 224.259 83.2173 225.518 83.8848 226.813C83.0689 225.629 82.3272 224.407 81.5485 223.185C80.8068 221.964 80.1022 220.742 79.3605 219.521C78.6559 218.262 77.9142 217.04 77.2467 215.782C76.5421 214.523 75.8746 213.264 75.207 211.969Z" fill="white"/>
<path opacity="0.1" d="M79.0261 213.746C77.7281 212.45 76.2818 211.265 74.3164 210.414C74.2916 210.686 74.2669 210.957 74.2422 211.228C75.466 211.969 76.4673 212.82 77.3944 213.746C78.6552 215.029 79.7183 216.423 80.5836 217.929C81.4736 219.434 82.1659 221.051 82.6603 222.778C83.0683 224.296 83.365 225.888 83.2908 227.665C83.7605 227.986 84.2797 228.269 84.8483 228.516C85.0708 226.369 84.7371 224.518 84.2921 222.778C83.7976 221.051 83.1054 219.434 82.2153 217.929C81.35 216.423 80.2869 215.029 79.0261 213.746Z" fill="white"/>
<path d="M84.5512 228.294C83.3274 230.071 81.9182 231.256 80.4348 232.329C78.9514 233.341 77.3815 234.143 75.7251 234.735C74.0934 235.328 72.3875 235.722 70.6075 235.92C68.7903 236.068 66.9361 236.068 64.8594 235.476C66.0461 233.662 67.4924 232.477 68.9387 231.441C70.4468 230.429 72.0167 229.627 73.6484 229.034C75.3048 228.417 77.0231 228.023 78.8031 227.85C80.6202 227.702 82.4745 227.702 84.5512 228.294Z" fill="#11720E"/>
<path d="M66.5654 234.847C67.8634 234.255 69.1984 233.736 70.5335 233.218C71.8685 232.7 73.2035 232.219 74.5386 231.7C75.9107 231.219 77.2457 230.738 78.6179 230.257C79.9529 229.812 81.325 229.368 82.6971 228.961C81.3992 229.516 80.0642 230.072 78.7291 230.59C77.3941 231.108 76.059 231.589 74.6869 232.108C73.3519 232.589 72.0168 233.07 70.6447 233.551C69.2726 233.995 67.9376 234.44 66.5654 234.847Z" fill="white"/>
<path opacity="0.1" d="M68.9387 231.441C67.4924 232.477 66.0461 233.662 64.8594 235.476C65.1313 235.55 65.3909 235.611 65.6381 235.661C66.6023 234.624 67.6036 233.773 68.6791 233.032C70.1624 232.021 71.7324 231.219 73.3888 230.626C75.0205 230.034 76.7264 229.639 78.5064 229.442C80.1011 229.331 81.6957 229.294 83.4757 229.701C83.8466 229.257 84.2051 228.788 84.5512 228.294C82.4745 227.702 80.6202 227.702 78.8031 227.85C77.0231 228.023 75.3048 228.417 73.6484 229.034C72.0167 229.627 70.4468 230.429 68.9387 231.441Z" fill="white"/>
<path d="M99.7932 230.441C97.6794 229.996 96.0477 229.145 94.5272 228.183C93.0191 227.195 91.6717 226.06 90.485 224.777C89.2983 223.494 88.2723 222.062 87.407 220.483C86.5911 218.891 85.8865 217.151 85.627 215.004C87.7408 215.448 89.4096 216.3 90.93 217.262C92.4381 218.249 93.7855 219.384 94.9722 220.668C96.1589 221.951 97.1726 223.382 98.0131 224.962C98.8661 226.591 99.5707 228.294 99.7932 230.441Z" fill="#11720E"/>
<path d="M86.8506 216.336C87.8889 217.335 88.8902 218.372 89.8915 219.371C90.8928 220.408 91.857 221.482 92.8212 222.518C93.7854 223.592 94.7496 224.628 95.7138 225.702C96.6409 226.775 97.568 227.886 98.4951 228.996C97.4567 227.997 96.4554 226.96 95.4542 225.961C94.4529 224.924 93.4887 223.851 92.4874 222.814C91.5603 221.741 90.559 220.704 89.6319 219.631C88.7048 218.557 87.7406 217.446 86.8506 216.336Z" fill="white"/>
<path opacity="0.1" d="M90.93 217.262C89.4096 216.3 87.7408 215.448 85.627 215.004C85.6517 215.3 85.6888 215.572 85.7382 215.818C87.1103 216.3 88.2599 216.929 89.3354 217.595C90.8435 218.582 92.1909 219.73 93.3776 221.038C94.5643 222.321 95.5779 223.753 96.4185 225.332C97.1602 226.739 97.7906 228.183 98.0873 229.959C98.6312 230.157 99.1998 230.317 99.7932 230.441C99.5707 228.294 98.8661 226.591 98.0131 224.962C97.1726 223.382 96.1589 221.951 94.9722 220.668C93.7855 219.384 92.4381 218.249 90.93 217.262Z" fill="white"/>
<path d="M99.4598 230.292C98.681 232.291 97.5314 233.772 96.3076 235.105C95.0714 236.413 93.7117 237.536 92.2283 238.474C90.7697 239.411 89.1874 240.164 87.4815 240.732C85.7385 241.25 83.9214 241.657 81.7705 241.509C82.5493 239.51 83.6989 238.029 84.8856 236.697C86.1465 235.389 87.5062 234.266 88.9649 233.328C90.4483 232.39 92.0429 231.638 93.7488 231.07C95.4917 230.552 97.3089 230.144 99.4598 230.292Z" fill="#11720E"/>
<path d="M83.291 240.546C84.4406 239.694 85.6273 238.88 86.814 238.103C88.0007 237.288 89.2245 236.548 90.4112 235.733C91.635 234.993 92.8588 234.216 94.0826 233.475C95.3064 232.735 96.5301 232.031 97.791 231.328C96.6414 232.18 95.4547 232.994 94.268 233.771C93.0813 234.586 91.8575 235.326 90.6708 236.141C89.447 236.881 88.2232 237.658 86.9995 238.399C85.7757 239.102 84.5519 239.842 83.291 240.546Z" fill="white"/>
<path opacity="0.1" d="M84.8856 236.697C83.6989 238.029 82.5493 239.51 81.7705 241.509C82.0425 241.534 82.3144 241.546 82.5864 241.546C83.291 240.288 84.1068 239.251 84.9598 238.326C86.1959 237.018 87.5557 235.895 89.0391 234.957C90.5224 234.019 92.1171 233.266 93.8229 232.699C95.3434 232.254 96.9009 231.884 98.681 231.884C98.9777 231.391 99.2373 230.86 99.4598 230.292C97.3089 230.144 95.4917 230.552 93.7488 231.07C92.0429 231.638 90.4483 232.39 88.9649 233.328C87.5062 234.266 86.1465 235.389 84.8856 236.697Z" fill="white"/>
<path d="M270.751 234.623C269.268 236.141 267.636 237.51 266.005 238.843C261.888 242.138 257.475 245.025 252.84 247.542C246.535 250.985 239.749 253.613 232.74 255.205C224.359 257.093 215.644 257.463 207.152 256.205C196.62 254.613 186.607 250.578 177.558 245.025C176.248 244.211 174.95 243.372 173.665 242.508C173.257 242.249 173.739 241.693 174.147 241.952C183.195 248.061 193.319 252.799 204.111 254.909C212.64 256.612 221.429 256.612 229.959 255.02C237.116 253.65 244.051 251.207 250.54 247.912C255.436 245.432 260.071 242.471 264.41 239.139C266.413 237.584 268.304 235.844 270.084 234.253C270.109 234.228 270.133 234.203 270.158 234.179C270.492 233.845 271.085 234.29 270.751 234.623Z" fill="#11720E"/>
<path d="M264.633 239.918C266.747 239.51 268.415 238.659 269.936 237.734C271.469 236.746 272.828 235.623 274.015 234.365C275.227 233.081 276.265 231.662 277.13 230.108C277.983 228.516 278.725 226.776 278.984 224.629C276.834 225.036 275.202 225.888 273.644 226.813C272.136 227.8 270.776 228.935 269.565 230.219C268.378 231.477 267.352 232.896 266.487 234.476C265.634 236.068 264.892 237.771 264.633 239.918Z" fill="#11720E"/>
<path d="M277.725 225.961C276.686 226.923 275.685 227.96 274.684 228.959C273.645 229.996 272.681 231.032 271.68 232.069C270.716 233.143 269.751 234.179 268.787 235.253C267.823 236.289 266.896 237.363 265.969 238.473C267.007 237.511 268.045 236.474 269.047 235.475C270.048 234.438 271.012 233.402 272.014 232.365C272.978 231.329 273.979 230.292 274.906 229.219C275.87 228.145 276.834 227.071 277.725 225.961Z" fill="white"/>
<path opacity="0.1" d="M273.644 226.813C275.202 225.888 276.834 225.036 278.984 224.629C278.935 224.925 278.886 225.197 278.836 225.443C277.501 225.888 276.314 226.517 275.239 227.183C273.706 228.17 272.346 229.306 271.16 230.589C269.973 231.848 268.935 233.267 268.045 234.846C267.34 236.216 266.672 237.696 266.339 239.473C265.795 239.646 265.226 239.794 264.633 239.918C264.892 237.771 265.634 236.068 266.487 234.476C267.352 232.896 268.378 231.477 269.565 230.219C270.776 228.935 272.136 227.8 273.644 226.813Z" fill="white"/>
<path d="M259.069 243.73C260.812 242.435 261.925 240.991 262.889 239.436C263.828 237.906 264.558 236.314 265.077 234.661C265.621 232.983 265.942 231.255 266.041 229.478C266.078 227.664 266.004 225.813 265.299 223.74C263.557 225.036 262.444 226.517 261.443 228.034C260.503 229.564 259.786 231.169 259.292 232.847C258.773 234.5 258.464 236.228 258.365 238.029C258.291 239.843 258.365 241.694 259.069 243.73Z" fill="#11720E"/>
<path d="M264.78 225.48C264.261 226.813 263.778 228.183 263.333 229.516C262.851 230.885 262.443 232.255 261.998 233.625C261.59 234.994 261.145 236.327 260.775 237.734C260.367 239.103 259.996 240.473 259.662 241.88C260.144 240.547 260.626 239.177 261.108 237.808C261.553 236.475 261.961 235.105 262.406 233.736C262.814 232.366 263.259 230.996 263.667 229.627C264.038 228.257 264.409 226.887 264.78 225.48Z" fill="white"/>
<path opacity="0.1" d="M261.443 228.034C262.444 226.517 263.557 225.036 265.299 223.74C265.398 224.012 265.485 224.283 265.559 224.555C264.521 225.517 263.742 226.591 263.037 227.701C262.098 229.231 261.381 230.823 260.886 232.477C260.343 234.155 260.021 235.895 259.922 237.696C259.885 239.251 259.959 240.843 260.404 242.583C260.009 242.978 259.564 243.36 259.069 243.73C258.365 241.694 258.291 239.843 258.365 238.029C258.464 236.228 258.773 234.5 259.292 232.847C259.786 231.169 260.503 229.564 261.443 228.034Z" fill="white"/>
<path d="M259.328 243.471C260.886 244.915 262.554 245.766 264.223 246.47C265.904 247.136 267.61 247.568 269.341 247.765C271.072 247.987 272.827 248 274.607 247.802C276.424 247.543 278.241 247.136 280.132 246.062C278.538 244.582 276.906 243.73 275.2 243.064C273.544 242.397 271.838 241.966 270.083 241.768C268.352 241.546 266.597 241.534 264.817 241.731C262.999 241.99 261.219 242.398 259.328 243.471Z" fill="#11720E"/>
<path d="M278.315 245.84C276.905 245.581 275.496 245.359 274.087 245.137C272.678 244.915 271.232 244.767 269.822 244.545C268.413 244.397 266.967 244.212 265.558 244.064C264.111 243.915 262.702 243.767 261.256 243.693C262.665 243.952 264.074 244.175 265.521 244.397C266.93 244.619 268.339 244.804 269.748 244.989C271.194 245.174 272.604 245.322 274.05 245.47C275.459 245.618 276.905 245.766 278.315 245.84Z" fill="white"/>
<path opacity="0.1" d="M275.2 243.064C276.906 243.73 278.538 244.582 280.132 246.062C279.885 246.21 279.638 246.346 279.391 246.47C278.241 245.618 277.054 245.026 275.831 244.545C274.174 243.903 272.468 243.471 270.713 243.249C268.982 243.027 267.227 243.027 265.447 243.249C263.89 243.471 262.295 243.804 260.7 244.582C260.231 244.261 259.773 243.891 259.328 243.471C261.219 242.398 262.999 241.99 264.817 241.731C266.597 241.534 268.352 241.546 270.083 241.768C271.838 241.966 273.544 242.397 275.2 243.064Z" fill="white"/>
<path d="M248.056 249.431C249.947 248.431 251.319 247.135 252.506 245.803C253.692 244.421 254.669 242.952 255.435 241.398C256.202 239.843 256.783 238.177 257.178 236.4C257.512 234.623 257.735 232.772 257.364 230.662C255.435 231.662 254.1 232.92 252.877 234.29C251.715 235.647 250.75 237.116 249.984 238.695C249.193 240.25 248.612 241.903 248.241 243.656C247.907 245.433 247.685 247.283 248.056 249.431Z" fill="#11720E"/>
<path d="M256.548 232.291C255.843 233.513 255.175 234.771 254.508 236.03C253.84 237.326 253.173 238.584 252.542 239.88C251.912 241.175 251.282 242.434 250.688 243.73C250.058 245.025 249.464 246.321 248.908 247.654C249.65 246.432 250.317 245.173 250.985 243.878C251.652 242.619 252.283 241.361 252.95 240.065C253.544 238.769 254.211 237.511 254.805 236.215C255.398 234.882 255.991 233.587 256.548 232.291Z" fill="white"/>
<path opacity="0.1" d="M252.877 234.29C254.1 232.92 255.435 231.662 257.364 230.662C257.413 230.934 257.45 231.205 257.475 231.477C256.325 232.291 255.361 233.216 254.508 234.179C253.346 235.561 252.382 237.029 251.616 238.584C250.825 240.139 250.244 241.805 249.873 243.582C249.576 245.099 249.354 246.691 249.576 248.505C249.106 248.826 248.6 249.134 248.056 249.431C247.685 247.283 247.907 245.433 248.241 243.656C248.612 241.903 249.193 240.25 249.984 238.695C250.75 237.116 251.715 235.647 252.877 234.29Z" fill="white"/>
<path d="M248.352 249.172C249.65 250.875 251.17 251.986 252.69 252.911C254.248 253.824 255.867 254.528 257.548 255.021C259.23 255.515 260.973 255.799 262.777 255.873C264.595 255.873 266.449 255.761 268.488 255.021C267.153 253.318 265.67 252.208 264.112 251.282C262.555 250.369 260.936 249.666 259.254 249.172C257.573 248.703 255.83 248.432 254.025 248.358C252.245 248.321 250.391 248.432 248.352 249.172Z" fill="#11720E"/>
<path d="M266.745 254.539C265.373 254.021 264.038 253.577 262.665 253.169C261.293 252.725 259.921 252.318 258.549 251.911C257.177 251.54 255.805 251.133 254.396 250.763C253.024 250.393 251.614 250.023 250.242 249.727C251.577 250.208 252.949 250.652 254.321 251.096C255.657 251.503 257.066 251.911 258.401 252.318C259.81 252.725 261.182 253.132 262.554 253.502C263.963 253.836 265.336 254.206 266.745 254.539Z" fill="white"/>
<path opacity="0.1" d="M264.112 251.282C265.67 252.208 267.153 253.318 268.488 255.021C268.216 255.12 267.944 255.206 267.673 255.28C266.671 254.281 265.596 253.54 264.483 252.837C262.95 251.949 261.343 251.258 259.662 250.764C257.981 250.27 256.238 249.999 254.433 249.95C252.839 249.913 251.244 249.987 249.538 250.505C249.118 250.11 248.722 249.666 248.352 249.172C250.391 248.432 252.245 248.321 254.025 248.358C255.83 248.432 257.573 248.703 259.254 249.172C260.936 249.666 262.555 250.369 264.112 251.282Z" fill="white"/>
<path d="M235.707 253.984C237.747 253.28 239.304 252.244 240.713 251.096C242.073 249.936 243.26 248.641 244.274 247.209C245.312 245.802 246.152 244.26 246.795 242.582C247.426 240.879 247.908 239.102 247.908 236.918C245.831 237.621 244.311 238.658 242.901 239.805C241.542 240.965 240.355 242.261 239.341 243.692C238.328 245.124 237.487 246.666 236.82 248.32C236.189 250.023 235.707 251.836 235.707 253.984Z" fill="#11720E"/>
<path d="M246.833 238.398C245.943 239.509 245.09 240.657 244.2 241.804C243.347 242.952 242.531 244.099 241.678 245.247C240.863 246.431 240.01 247.616 239.231 248.801C238.415 249.985 237.599 251.17 236.857 252.391C237.747 251.281 238.637 250.133 239.49 248.986C240.343 247.838 241.196 246.691 242.049 245.506C242.865 244.358 243.681 243.174 244.497 241.989C245.276 240.805 246.091 239.62 246.833 238.398Z" fill="white"/>
<path opacity="0.1" d="M242.901 239.805C244.311 238.658 245.831 237.621 247.908 236.918C247.908 237.214 247.895 237.498 247.871 237.769C246.61 238.399 245.534 239.139 244.533 239.954C243.149 241.138 241.95 242.434 240.936 243.84C239.922 245.272 239.094 246.827 238.451 248.505C237.895 249.949 237.45 251.503 237.376 253.317C236.857 253.564 236.3 253.786 235.707 253.984C235.707 251.836 236.189 250.023 236.82 248.32C237.487 246.666 238.328 245.124 239.341 243.692C240.355 242.261 241.542 240.965 242.901 239.805Z" fill="white"/>
<path d="M236.041 253.798C237.079 255.686 238.377 256.981 239.749 258.166C241.134 259.326 242.617 260.276 244.2 261.016C245.782 261.782 247.463 262.337 249.243 262.682C251.023 262.978 252.877 263.164 254.991 262.756C253.953 260.868 252.655 259.536 251.283 258.351C249.898 257.216 248.415 256.278 246.833 255.538C245.25 254.773 243.569 254.217 241.789 253.872C240.009 253.576 238.155 253.391 236.041 253.798Z" fill="#11720E"/>
<path d="M253.359 261.978C252.098 261.275 250.837 260.645 249.539 259.979C248.278 259.35 246.98 258.72 245.682 258.091C244.384 257.499 243.086 256.869 241.788 256.314C240.453 255.722 239.155 255.167 237.82 254.611C239.081 255.315 240.342 255.981 241.64 256.61C242.901 257.277 244.199 257.869 245.497 258.498C246.795 259.091 248.093 259.72 249.391 260.312C250.689 260.867 252.024 261.46 253.359 261.978Z" fill="white"/>
<path opacity="0.1" d="M251.283 258.351C252.655 259.536 253.953 260.868 254.991 262.756C254.719 262.806 254.447 262.855 254.175 262.904C253.322 261.757 252.395 260.831 251.394 259.98C250.009 258.845 248.526 257.907 246.944 257.167C245.362 256.402 243.693 255.846 241.937 255.501C240.38 255.205 238.785 255.056 237.005 255.279C236.659 254.81 236.338 254.316 236.041 253.798C238.155 253.391 240.009 253.576 241.789 253.872C243.569 254.217 245.25 254.773 246.833 255.538C248.415 256.278 249.898 257.216 251.283 258.351Z" fill="white"/>
<path d="M221.615 256.279C223.729 256.02 225.435 255.28 227.03 254.428C228.612 253.54 230.033 252.491 231.294 251.282C232.58 250.097 233.705 248.752 234.669 247.247C235.596 245.692 236.449 244.026 236.82 241.879C234.669 242.175 232.963 242.915 231.368 243.767C229.811 244.655 228.402 245.692 227.141 246.876C225.855 248.086 224.73 249.443 223.766 250.948C222.839 252.503 221.986 254.169 221.615 256.279Z" fill="#11720E"/>
<path d="M235.523 243.137C234.41 244.062 233.335 245.025 232.259 245.95C231.221 246.913 230.183 247.912 229.107 248.875C228.106 249.874 227.03 250.874 226.029 251.873C225.028 252.873 223.99 253.909 223.025 254.946C224.138 254.02 225.213 253.058 226.252 252.132C227.327 251.17 228.366 250.17 229.441 249.208C230.442 248.208 231.481 247.209 232.519 246.209C233.52 245.21 234.522 244.173 235.523 243.137Z" fill="white"/>
<path opacity="0.1" d="M231.368 243.767C232.963 242.915 234.669 242.175 236.82 241.879C236.77 242.175 236.709 242.447 236.634 242.693C235.262 243.063 234.076 243.619 232.926 244.211C231.368 245.1 229.959 246.148 228.698 247.358C227.413 248.542 226.288 249.9 225.324 251.43C224.508 252.762 223.766 254.206 223.358 255.946C222.79 256.094 222.209 256.205 221.615 256.279C221.986 254.169 222.839 252.503 223.766 250.948C224.73 249.443 225.855 248.086 227.141 246.876C228.402 245.692 229.811 244.655 231.368 243.767Z" fill="white"/>
<path d="M221.949 256.168C222.617 258.204 223.655 259.759 224.768 261.202C225.905 262.585 227.178 263.794 228.587 264.83C229.997 265.867 231.529 266.731 233.186 267.422C234.892 268.051 236.672 268.606 238.823 268.606C238.192 266.533 237.154 264.978 236.041 263.572C234.879 262.19 233.594 260.98 232.185 259.944C230.8 258.907 229.267 258.044 227.586 257.353C225.917 256.686 224.1 256.168 221.949 256.168Z" fill="#11720E"/>
<path d="M237.375 267.534C236.263 266.608 235.15 265.72 234.001 264.831C232.888 263.943 231.739 263.128 230.589 262.24C229.439 261.425 228.29 260.574 227.103 259.723C225.916 258.908 224.73 258.094 223.543 257.316C224.618 258.242 225.768 259.13 226.881 260.019C228.03 260.907 229.18 261.759 230.329 262.61C231.479 263.424 232.629 264.276 233.815 265.127C235.002 265.942 236.152 266.756 237.375 267.534Z" fill="white"/>
<path opacity="0.1" d="M236.041 263.572C237.154 264.978 238.192 266.533 238.823 268.606C238.551 268.606 238.279 268.594 238.007 268.569C237.413 267.274 236.635 266.2 235.856 265.201C234.719 263.794 233.433 262.585 231.999 261.573C230.615 260.511 229.082 259.648 227.401 258.981C225.954 258.389 224.397 257.945 222.617 257.797C222.37 257.303 222.147 256.76 221.949 256.168C224.1 256.168 225.917 256.686 227.586 257.353C229.267 258.044 230.8 258.907 232.185 259.944C233.594 260.98 234.879 262.19 236.041 263.572Z" fill="white"/>
<path d="M209.117 256.243C211.268 256.132 213.048 255.54 214.68 254.799C216.312 254.034 217.807 253.096 219.167 251.986C220.527 250.9 221.751 249.641 222.838 248.21C223.877 246.729 224.841 245.137 225.397 243.027C223.209 243.138 221.466 243.768 219.797 244.508C218.166 245.248 216.682 246.174 215.347 247.284C213.988 248.395 212.764 249.666 211.676 251.097C210.638 252.578 209.673 254.17 209.117 256.243Z" fill="#11720E"/>
<path d="M223.987 244.176C222.8 245.027 221.688 245.879 220.538 246.767C219.389 247.619 218.313 248.544 217.164 249.432C216.088 250.358 214.976 251.246 213.863 252.172C212.788 253.097 211.712 254.06 210.637 255.022C211.823 254.171 212.936 253.319 214.086 252.431C215.235 251.58 216.348 250.654 217.46 249.766C218.573 248.84 219.685 247.952 220.761 247.026C221.836 246.101 222.949 245.138 223.987 244.176Z" fill="white"/>
<path opacity="0.1" d="M219.797 244.508C221.466 243.768 223.209 243.138 225.397 243.027C225.323 243.299 225.237 243.57 225.138 243.842C223.766 244.101 222.505 244.545 221.318 245.063C219.686 245.828 218.203 246.766 216.868 247.877C215.508 248.963 214.284 250.234 213.196 251.69C212.306 252.948 211.454 254.318 210.897 256.021C210.329 256.144 209.735 256.218 209.117 256.243C209.673 254.17 210.638 252.578 211.676 251.097C212.764 249.666 213.988 248.395 215.347 247.284C216.682 246.174 218.166 245.248 219.797 244.508Z" fill="white"/>
<path d="M209.488 256.17C209.97 258.243 210.897 259.872 211.899 261.39C212.937 262.846 214.124 264.141 215.459 265.276C216.769 266.436 218.228 267.411 219.835 268.201C221.467 268.978 223.209 269.645 225.397 269.83C224.878 267.72 223.988 266.091 222.95 264.61C221.936 263.129 220.762 261.821 219.427 260.686C218.092 259.551 216.621 258.576 215.014 257.762C213.382 256.984 211.639 256.318 209.488 256.17Z" fill="#11720E"/>
<path d="M224.024 268.644C222.986 267.645 221.911 266.682 220.872 265.72C219.797 264.757 218.721 263.795 217.646 262.869C216.533 261.944 215.458 261.019 214.345 260.093C213.233 259.205 212.12 258.279 210.971 257.428C212.009 258.427 213.047 259.39 214.123 260.352C215.198 261.315 216.274 262.24 217.349 263.203C218.462 264.128 219.537 265.054 220.65 265.979C221.762 266.867 222.875 267.756 224.024 268.644Z" fill="white"/>
<path opacity="0.1" d="M222.95 264.61C223.988 266.091 224.878 267.72 225.397 269.83C225.101 269.805 224.816 269.768 224.545 269.719C224.062 268.386 223.395 267.276 222.653 266.202C221.615 264.721 220.441 263.413 219.13 262.278C217.795 261.143 216.324 260.168 214.717 259.354C213.308 258.687 211.788 258.095 210.007 257.836C209.81 257.317 209.637 256.762 209.488 256.17C211.639 256.318 213.382 256.984 215.014 257.762C216.621 258.576 218.092 259.551 219.427 260.686C220.762 261.821 221.936 263.129 222.95 264.61Z" fill="white"/>
<path d="M194.432 252.8C196.583 253.133 198.437 252.911 200.217 252.541C201.972 252.146 203.629 251.554 205.186 250.764C206.744 249.999 208.202 249.024 209.562 247.839C210.897 246.618 212.195 245.285 213.159 243.36C211.045 242.99 209.191 243.212 207.411 243.582C205.656 243.977 203.999 244.569 202.442 245.359C200.884 246.149 199.426 247.136 198.066 248.321C196.694 249.505 195.433 250.875 194.432 252.8Z" fill="#11720E"/>
<path d="M211.564 244.174C210.229 244.729 208.931 245.321 207.633 245.951C206.335 246.543 205.074 247.209 203.776 247.839C202.515 248.505 201.217 249.134 199.956 249.801C198.696 250.504 197.435 251.17 196.211 251.911C197.509 251.355 198.807 250.726 200.105 250.134C201.403 249.505 202.701 248.875 203.962 248.246C205.26 247.58 206.52 246.95 207.781 246.247C209.042 245.581 210.303 244.877 211.564 244.174Z" fill="white"/>
<path opacity="0.1" d="M207.411 243.582C209.191 243.212 211.045 242.99 213.159 243.36C213.036 243.607 212.9 243.841 212.751 244.064C211.342 244.026 210.044 244.212 208.783 244.471C207.028 244.866 205.372 245.458 203.814 246.248C202.232 247.037 200.761 248.025 199.401 249.209C198.251 250.246 197.139 251.393 196.212 252.948C195.643 252.948 195.05 252.899 194.432 252.8C195.433 250.875 196.694 249.505 198.066 248.321C199.426 247.136 200.884 246.149 202.442 245.359C203.999 244.569 205.656 243.977 207.411 243.582Z" fill="white"/>
<path d="M194.84 252.764C194.877 254.911 195.396 256.688 196.064 258.391C196.756 260.044 197.634 261.574 198.697 262.981C199.735 264.363 200.959 265.621 202.368 266.757C203.777 267.867 205.335 268.867 207.411 269.496C207.411 267.349 206.855 265.572 206.188 263.906C205.495 262.228 204.618 260.698 203.555 259.316C202.516 257.909 201.293 256.651 199.883 255.54C198.437 254.43 196.879 253.393 194.84 252.764Z" fill="#11720E"/>
<path d="M206.337 268.052C205.558 266.868 204.742 265.683 203.889 264.535C203.073 263.351 202.183 262.24 201.367 261.056C200.477 259.945 199.625 258.798 198.734 257.65C197.844 256.539 196.954 255.429 195.99 254.318C196.806 255.54 197.622 256.725 198.438 257.872C199.291 259.02 200.144 260.167 200.997 261.352C201.887 262.462 202.74 263.61 203.63 264.721C204.52 265.868 205.41 266.979 206.337 268.052Z" fill="white"/>
<path opacity="0.1" d="M206.188 263.906C206.855 265.572 207.411 267.349 207.411 269.496C207.139 269.422 206.88 269.336 206.633 269.237C206.447 267.83 206.039 266.572 205.557 265.387C204.865 263.734 203.987 262.203 202.924 260.797C201.861 259.415 200.637 258.156 199.253 257.021C197.992 256.058 196.657 255.17 194.988 254.541C194.889 253.973 194.84 253.381 194.84 252.764C196.879 253.393 198.437 254.43 199.883 255.54C201.293 256.651 202.516 257.909 203.555 259.316C204.618 260.698 205.495 262.228 206.188 263.906Z" fill="white"/>
<path d="M212.717 263.943C212.717 269.718 207.97 274.457 202.185 274.457H83.7371C77.9519 274.457 73.2422 269.718 73.2422 263.943V55.3805C73.2422 49.6056 77.9519 44.8672 83.7371 44.8672H202.185C207.97 44.8672 212.717 49.6056 212.717 55.3805V263.943Z" fill="#0A2867"/>
<path d="M170.663 53.2695C169.476 57.3786 157.535 60.6362 142.961 60.6362C128.387 60.6362 116.446 57.3786 115.259 53.2695H83.7373V251.134H202.185V53.2695H170.663Z" fill="#C2CEF2"/>
<path d="M189 89H96C96 89 96 94.9141 96 102.208V207.479V226.207V239.415H105.844H186.52C187.853 239.415 189 233.501 189 226.207V102.208C189 94.9141 190.332 89 189 89Z" fill="#0A2867" fill-opacity="0.14"/>
<path d="M181.38 95.3613H104.133V94.5469H181.38V95.3613Z" fill="white"/>
<path d="M181.38 103.617H104.133V102.803H181.38V103.617Z" fill="white"/>
<path d="M159.018 111.871H104.133V111.057H159.018V111.871Z" fill="white"/>
<path d="M113.182 76.704C113.182 81.3313 109.399 85.1072 104.764 85.1072C100.128 85.1072 96.3457 81.3313 96.3457 76.704C96.3457 72.0397 100.128 68.3008 104.764 68.3008C109.399 68.3008 113.182 72.0397 113.182 76.704Z" fill="#0A2867" fill-opacity="0.14"/>
<mask id="mask0_130_2647" style="mask-type:luminance" maskUnits="userSpaceOnUse" x="96" y="68" width="18" height="18">
<path d="M113.186 76.6882C113.186 81.3266 109.418 85.0914 104.768 85.0914C100.117 85.0914 96.3457 81.3266 96.3457 76.6882C96.3457 72.046 100.117 68.2812 104.768 68.2812C109.418 68.2812 113.186 72.046 113.186 76.6882Z" fill="white"/>
</mask>
<g mask="url(#mask0_130_2647)">
<path d="M104.763 77.6645C106.024 77.6645 107.062 76.628 107.062 75.3694C107.062 74.1107 106.024 73.0742 104.763 73.0742C103.502 73.0742 102.464 74.1107 102.464 75.3694C102.464 76.628 103.502 77.6645 104.763 77.6645Z" fill="white"/>
<path d="M104.763 78.5156C102.205 78.5156 100.091 80.6257 100.091 83.18C100.091 85.7713 102.205 87.8443 104.763 87.8443C107.359 87.8443 109.436 85.7713 109.436 83.18C109.436 80.6257 107.359 78.5156 104.763 78.5156Z" fill="white"/>
</g>
<path d="M140.895 116C117.793 116 99 134.76 99 157.821C99 180.882 117.793 199.642 140.895 199.642C163.997 199.642 182.79 180.882 182.79 157.821C182.79 134.76 163.997 116 140.895 116Z" fill="#F83200"/>
<path fill-rule="evenodd" clip-rule="evenodd" d="M169.864 157.822C169.864 173.745 156.846 186.74 140.895 186.74C124.944 186.74 111.926 173.745 111.926 157.822C111.926 141.899 124.944 128.904 140.895 128.904C156.846 128.904 169.864 141.899 169.864 157.822ZM117.38 157.822C117.38 163.313 119.306 168.346 122.468 172.372L155.471 139.428C151.437 136.271 146.395 134.349 140.895 134.349C127.923 134.349 117.38 144.873 117.38 157.822ZM164.409 157.822C164.409 152.331 162.484 147.298 159.321 143.272L126.319 176.216C130.352 179.373 135.394 181.295 140.895 181.295C153.867 181.295 164.409 170.771 164.409 157.822Z" fill="white"/>
<path fill-rule="evenodd" clip-rule="evenodd" d="M79.5832 91.7329V92.3993C79.5832 94.0651 78.2111 95.4348 76.5793 95.4348H73.3159C73.2417 95.7803 73.1552 96.1135 73.0563 96.4343L75.8747 98.0261C77.321 98.8775 77.8031 100.691 76.9873 102.135L76.6535 102.727C75.8377 104.171 73.9834 104.689 72.5371 103.838L69.7187 102.246C69.4468 102.542 69.1625 102.826 68.8658 103.098L70.4975 105.911C71.3134 107.318 70.7942 109.169 69.385 109.983L68.7916 110.353C67.3453 111.168 65.4911 110.649 64.6752 109.206L63.0435 106.429C62.7221 106.528 62.3884 106.614 62.0423 106.688V109.909C62.0423 111.575 60.7072 112.945 59.0384 112.945H58.3338C56.7021 112.945 55.33 111.575 55.33 109.909V106.688C54.9839 106.614 54.6501 106.528 54.3287 106.429L52.7341 109.206C51.8811 110.649 50.0269 111.168 48.6177 110.353L48.0244 109.983C46.5781 109.169 46.0589 107.318 46.9118 105.911L48.5065 103.098C48.2098 102.826 47.9255 102.542 47.6535 102.246L44.8351 103.838C43.4259 104.689 41.5717 104.171 40.7187 102.727L40.385 102.135C39.5691 100.691 40.0883 98.8775 41.4975 98.0261L44.3159 96.4343C44.217 96.1135 44.1305 95.7803 44.0563 95.4348H40.83C39.1612 95.4348 37.7891 94.0651 37.7891 92.3993V91.7329C37.7891 90.0671 39.1612 88.7344 40.83 88.7344H44.0563C44.1305 88.3889 44.217 88.0434 44.3159 87.6979L41.4975 86.1061C40.0883 85.2917 39.5691 83.4408 40.385 81.997L40.7187 81.4047C41.5717 79.961 43.4259 79.4798 44.8351 80.2942L47.6535 81.923C47.9255 81.6268 48.2098 81.343 48.5065 81.0716L46.9118 78.2581C46.0589 76.8144 46.5781 74.9635 48.0244 74.1491L48.6177 73.8159C50.0269 73.0015 51.8811 73.4827 52.7341 74.9265L54.3287 77.7399C54.6501 77.6412 54.9839 77.5548 55.33 77.4808V74.2231C55.33 72.5573 56.7021 71.2246 58.3338 71.2246H59.0384C60.7072 71.2246 62.0423 72.5573 62.0423 74.2231V77.4808C62.3884 77.5548 62.7221 77.6412 63.0435 77.7399L64.6752 74.9265C65.4911 73.4827 67.3453 73.0015 68.7916 73.8159L69.385 74.1491C70.7942 74.9635 71.3134 76.8144 70.4975 78.2581L68.8658 81.0716C69.1625 81.343 69.4468 81.6268 69.7187 81.923L72.5371 80.2942C73.9834 79.4798 75.8377 79.961 76.6535 81.4047L76.9873 81.997C77.8031 83.4408 77.321 85.2917 75.8747 86.1061L73.0563 87.6979C73.1552 88.0434 73.2417 88.3889 73.3159 88.7344H76.5793C78.2111 88.7344 79.5832 90.0671 79.5832 91.7329ZM69.0512 92.0661C69.0512 86.3652 64.4157 81.7379 58.7047 81.7379C52.9937 81.7379 48.3581 86.3652 48.3581 92.0661C48.3581 97.767 52.9937 102.394 58.7047 102.394C64.4157 102.394 69.0512 97.767 69.0512 92.0661Z" fill="#F9AB43"/>
<path fill-rule="evenodd" clip-rule="evenodd" d="M54.4026 54.7513L54.5138 55.2325C54.7734 56.306 54.0688 57.4166 52.9934 57.6387L50.8425 58.157C50.8425 58.3791 50.8301 58.6135 50.8054 58.8603L52.9192 59.4896C53.9946 59.8228 54.588 60.9704 54.2542 62.0439L54.143 62.4881C53.8092 63.5617 52.6596 64.154 51.5842 63.8208L49.4703 63.1915C49.3467 63.4136 49.2108 63.6357 49.0624 63.8578L50.5458 65.4867C51.2875 66.3011 51.2504 67.5967 50.3975 68.3741L50.0637 68.6703C49.2478 69.4476 47.9499 69.3736 47.2082 68.5592L45.7248 66.9304C45.5023 67.0538 45.2922 67.1648 45.0944 67.2635L45.5765 69.4106C45.799 70.4842 45.1315 71.5947 44.0189 71.8539L43.5739 71.9649C42.4614 72.187 41.3859 71.5207 41.1264 70.4101L40.6443 68.2631C40.397 68.2631 40.1622 68.2631 39.9397 68.2631L39.3092 70.3361C38.9755 71.4096 37.8258 72.039 36.7504 71.7058L36.3054 71.5577C35.2299 71.2245 34.6366 70.077 34.9333 69.0034L35.6008 66.9304C35.3535 66.7823 35.1187 66.6342 34.8962 66.4862L33.3015 67.9669C32.4486 68.7443 31.1506 68.6703 30.409 67.8558L30.0752 67.5227C29.3335 66.7083 29.3706 65.4126 30.2235 64.6352L31.8182 63.1545C31.6946 62.9571 31.5833 62.7473 31.4844 62.5252L29.3706 63.0064C28.2581 63.2655 27.1455 62.5622 26.923 61.4886L26.8118 61.0074C26.5522 59.9339 27.2568 58.8233 28.3322 58.6012L30.4831 58.0829C30.4831 57.8608 30.4955 57.6264 30.5202 57.3796L28.4064 56.7503C27.331 56.4171 26.7376 55.2695 27.0714 54.196L27.1826 53.7517C27.5164 52.6782 28.666 52.0859 29.7414 52.4191L31.8553 53.0484C31.9789 52.8263 32.1272 52.6042 32.3003 52.3821L30.7798 50.7532C30.0381 49.9388 30.0752 48.6432 30.9281 47.8658L31.2619 47.5696C32.0778 46.7922 33.3757 46.8663 34.1545 47.6807L35.6379 49.3095C35.8356 49.1861 36.0458 49.0751 36.2683 48.9763L35.7491 46.8293C35.5266 45.7557 36.1941 44.6452 37.3067 44.386L37.7517 44.275C38.8642 44.0529 39.9397 44.7192 40.1992 45.8298L40.6813 47.9768C40.9286 47.9768 41.1634 47.9768 41.3859 47.9768L42.0164 45.9038C42.3501 44.8303 43.4998 44.2009 44.5752 44.5341L45.0202 44.6822C46.0957 45.0154 46.7261 46.1629 46.3923 47.2365L45.7248 49.3095C45.972 49.4576 46.2069 49.6057 46.4294 49.7537L48.0241 48.273C48.877 47.4956 50.1749 47.5696 50.9166 48.384L51.2504 48.7172C51.9921 49.5686 51.955 50.8643 51.1021 51.6047L49.5074 53.0854C49.631 53.2828 49.7423 53.4926 49.8412 53.7147L51.955 53.2335C53.0675 52.9744 54.1801 53.6777 54.4026 54.7513ZM47.5049 56.5652C46.6519 52.7893 42.8693 50.4571 39.1238 51.3085C35.3412 52.16 32.9678 55.8988 33.8207 59.6747C34.6737 63.4506 38.4563 65.7828 42.2018 64.9314C45.9844 64.0799 48.3578 60.3411 47.5049 56.5652Z" fill="#EB725F"/>
<path fill-rule="evenodd" clip-rule="evenodd" d="M250.468 110.019L250.542 110.464C250.802 111.537 250.097 112.611 249.021 112.87L246.945 113.351C246.945 113.573 246.932 113.808 246.908 114.054L248.984 114.684C250.023 114.98 250.616 116.127 250.319 117.164L250.171 117.608C249.837 118.645 248.725 119.237 247.649 118.941L245.61 118.312C245.461 118.534 245.313 118.756 245.165 118.978L246.648 120.57C247.39 121.384 247.316 122.643 246.537 123.383L246.203 123.679C245.387 124.457 244.089 124.383 243.348 123.568L241.901 122.013C241.704 122.112 241.493 122.211 241.271 122.31L241.753 124.42C242.013 125.493 241.308 126.567 240.232 126.826L239.787 126.9C238.712 127.159 237.637 126.493 237.414 125.419L236.932 123.309C236.685 123.309 236.45 123.297 236.227 123.272L235.597 125.345C235.263 126.382 234.151 126.974 233.075 126.678L232.667 126.53C231.592 126.197 230.998 125.086 231.332 124.049L231.963 121.976C231.74 121.828 231.518 121.68 231.295 121.532L229.701 123.013C228.885 123.753 227.624 123.679 226.845 122.902L226.548 122.569C225.807 121.754 225.844 120.459 226.66 119.718L228.254 118.275C228.131 118.077 228.019 117.867 227.92 117.645L225.844 118.126C224.768 118.386 223.693 117.682 223.433 116.609L223.322 116.164C223.1 115.091 223.767 114.017 224.842 113.795L226.956 113.314C226.956 113.067 226.956 112.833 226.956 112.611L224.917 111.981C223.841 111.648 223.248 110.538 223.582 109.464L223.693 109.057C224.027 107.983 225.176 107.391 226.215 107.724L228.291 108.354C228.415 108.131 228.551 107.909 228.699 107.687L227.253 106.095C226.511 105.281 226.548 104.022 227.364 103.245L227.698 102.949C228.514 102.208 229.775 102.245 230.516 103.06L232 104.652C232.198 104.528 232.395 104.417 232.593 104.318L232.111 102.245C231.889 101.172 232.556 100.098 233.631 99.8392L234.076 99.7282C235.152 99.5061 236.227 100.172 236.487 101.246L236.969 103.356C237.192 103.356 237.426 103.356 237.674 103.356L238.267 101.32C238.601 100.246 239.75 99.6542 240.789 99.9873L241.234 100.098C242.272 100.432 242.865 101.579 242.569 102.616L241.938 104.689C242.161 104.812 242.383 104.948 242.606 105.096L244.201 103.652C245.016 102.912 246.277 102.949 247.019 103.763L247.316 104.096C248.057 104.911 248.02 106.169 247.204 106.91L245.61 108.391C245.733 108.588 245.845 108.785 245.943 108.983L248.057 108.502C249.133 108.279 250.208 108.946 250.468 110.019ZM243.644 111.796C242.828 108.094 239.12 105.799 235.412 106.614C231.703 107.465 229.367 111.13 230.22 114.832C231.073 118.534 234.744 120.866 238.452 120.014C242.161 119.2 244.497 115.498 243.644 111.796Z" fill="#EB725F"/>
<path d="M245.053 280.158H144.666V274.457H245.053V280.158Z" fill="#FFCF74"/>
<path d="M235.412 274.456H154.309L189.353 188.129H200.367L235.412 274.456Z" fill="#F9AB43"/>
<mask id="mask1_130_2647" style="mask-type:luminance" maskUnits="userSpaceOnUse" x="154" y="188" width="82" height="87">
<path d="M235.426 274.457H154.293L189.36 188.133H200.356L235.426 274.457Z" fill="white"/>
</mask>
<g mask="url(#mask1_130_2647)">
<path d="M250.097 263.424H139.623V242.73H250.097V263.424Z" fill="#FFCF74"/>
<path d="M250.097 222.297H139.623V201.604H250.097V222.297Z" fill="#FFCF74"/>
</g>
<path opacity="0.1" d="M207.858 219.002C214.385 238.844 215.016 258.538 210.714 274.456H235.412L200.367 188.129H191.986C198.513 196.828 204.002 207.305 207.858 219.002Z" fill="#0046A0"/>
<g opacity="0.3">
<path d="M187.833 205.453C185.558 211.425 183.284 217.398 181.009 223.37C177.375 232.896 173.753 242.422 170.143 251.948C169.303 254.145 168.462 256.353 167.622 258.575C166.843 260.537 170.032 261.388 170.774 259.426C173.048 253.454 175.323 247.481 177.597 241.509C181.232 231.983 184.866 222.457 188.5 212.931C189.341 210.734 190.181 208.525 191.022 206.304C191.763 204.342 188.574 203.491 187.833 205.453Z" fill="white"/>
</g>
<path d="M102.353 280.158H43.7227V276.826H102.353V280.158Z" fill="#FFCF74"/>
<path d="M96.7161 276.826H49.3223L69.8299 226.406H76.2455L96.7161 276.826Z" fill="#F9AB43"/>
<mask id="mask2_130_2647" style="mask-type:luminance" maskUnits="userSpaceOnUse" x="49" y="226" width="48" height="51">
<path d="M96.7271 276.826H49.3369L69.8186 226.406H76.2416L96.7271 276.826Z" fill="white"/>
</mask>
<g mask="url(#mask2_130_2647)">
<path d="M105.283 270.384H40.7559V258.279H105.283V270.384Z" fill="#FFCF74"/>
<path d="M105.283 246.359H40.7559V234.254H105.283V246.359Z" fill="#FFCF74"/>
</g>
<path opacity="0.1" d="M80.6217 244.434C84.4414 256.021 84.8122 267.534 82.2905 276.826H96.7163L76.2457 226.406H71.3506C75.1703 231.478 78.3595 237.586 80.6217 244.434Z" fill="#0046A0"/>
<g opacity="0.3">
<path d="M68.9403 236.513C67.6053 239.993 66.2703 243.485 64.9352 246.989C62.8338 252.542 60.72 258.107 58.5938 263.685C58.0993 264.968 57.6049 266.251 57.1104 267.535C56.6654 268.682 58.5196 269.201 58.9646 268.053C60.2997 264.573 61.6347 261.081 62.9698 257.577C65.0712 252.024 67.185 246.459 69.3112 240.881C69.8056 239.598 70.3001 238.315 70.7946 237.031C71.2396 235.884 69.3854 235.366 68.9403 236.513Z" fill="white"/>
</g>
<path d="M235.597 145.039H229.997V139.449H227.994V145.039H222.432V147.001H227.994V152.591H229.997V147.001H235.597V145.039Z" fill="#00C1B2" fill-opacity="0.46"/>
<path d="M269.641 201.308H264.746V196.422H263.003V201.308H258.107V203.048H263.003V207.935H264.746V203.048H269.641V201.308Z" fill="#00C1B2" fill-opacity="0.46"/>
<path d="M273.126 160.772H270.308V157.996H269.307V160.772H266.525V161.772H269.307V164.548H270.308V161.772H273.126V160.772Z" fill="#00C1B2" fill-opacity="0.46"/>
<path d="M157.201 21.6944H154.419V18.918H153.418V21.6944H150.637V22.6939H153.418V25.5073H154.419V22.6939H157.201V21.6944Z" fill="#00C1B2" fill-opacity="0.46"/>
<path d="M179.524 11.3652H173.925V5.77539H171.959V11.3652H166.359V13.3642H171.959V18.917H173.925V13.3642H179.524V11.3652Z" fill="#00C1B2" fill-opacity="0.46"/>
<path d="M37.4922 133.822H32.5971V128.936H30.8541V133.822H25.959V135.562H30.8541V140.448H32.5971V135.562H37.4922V133.822Z" fill="#00C1B2" fill-opacity="0.46"/>
<path d="M17.9487 90.7705H15.1673V87.9941H14.1661V90.7705H11.3477V91.77H14.1661V94.5464H15.1673V91.77H17.9487V90.7705Z" fill="#00C1B2" fill-opacity="0.46"/>
<path d="M14.6479 208.675H11.8666V205.898H10.8653V208.675H8.08398V209.674H10.8653V212.451H11.8666V209.674H14.6479V208.675Z" fill="#00C1B2" fill-opacity="0.46"/>
<path d="M72.5 32.8728H67.6049V27.9863H65.8619V32.8728H60.9668V34.6127H65.8619V39.5361H67.6049V34.6127H72.5V32.8728Z" fill="#00C1B2" fill-opacity="0.46"/>
<path d="M128.016 28.2462C128.016 29.0976 127.311 29.764 126.458 29.764C125.605 29.764 124.938 29.0976 124.938 28.2462C124.938 27.3577 125.605 26.6914 126.458 26.6914C127.311 26.6914 128.016 27.3577 128.016 28.2462Z" fill="#E2E6FF"/>
<path d="M266.525 142.042C266.525 143.67 265.227 144.966 263.596 144.966C261.964 144.966 260.666 143.67 260.666 142.042C260.666 140.413 261.964 139.117 263.596 139.117C265.227 139.117 266.525 140.413 266.525 142.042Z" fill="#00C1B2" fill-opacity="0.14"/>
<path d="M6.119 131.121C6.119 131.973 5.41439 132.676 4.56145 132.676C3.70851 132.676 3.00391 131.973 3.00391 131.121C3.00391 130.27 3.70851 129.566 4.56145 129.566C5.41439 129.566 6.119 130.27 6.119 131.121Z" fill="#00C1B2" fill-opacity="0.14"/>
<path d="M96.2714 14.3268C96.2714 15.9556 94.9735 17.2513 93.3418 17.2513C91.7471 17.2513 90.4121 15.9556 90.4121 14.3268C90.4121 12.735 91.7471 11.4023 93.3418 11.4023C94.9735 11.4023 96.2714 12.735 96.2714 14.3268Z" fill="#00C1B2" fill-opacity="0.14"/>
<path d="M9.60535 54.4553C9.60535 55.3067 8.93783 56.01 8.08489 56.01C7.23195 56.01 6.52734 55.3067 6.52734 54.4553C6.52734 53.6038 7.23195 52.9375 8.08489 52.9375C8.93783 52.9375 9.60535 53.6038 9.60535 54.4553Z" fill="#00C1B2" fill-opacity="0.14"/>
<path d="M17.5781 255.171C17.5781 256.799 16.2801 258.095 14.6484 258.095C13.0538 258.095 11.7188 256.799 11.7188 255.171C11.7188 253.542 13.0538 252.246 14.6484 252.246C16.2801 252.246 17.5781 253.542 17.5781 255.171Z" fill="#00C1B2" fill-opacity="0.14"/>
<path d="M227.514 172.803C227.514 173.654 226.809 174.321 225.956 174.321C225.103 174.321 224.398 173.654 224.398 172.803C224.398 171.914 225.103 171.248 225.956 171.248C226.809 171.248 227.514 171.914 227.514 172.803Z" fill="#00C1B2" fill-opacity="0.14"/>
<path d="M230.555 11.4024C230.555 12.2539 229.85 12.9572 228.997 12.9572C228.144 12.9572 227.439 12.2539 227.439 11.4024C227.439 10.551 228.144 9.84766 228.997 9.84766C229.85 9.84766 230.555 10.551 230.555 11.4024Z" fill="#00C1B2" fill-opacity="0.14"/>
<path d="M26.7011 163.253C26.7011 164.881 25.4032 166.177 23.7715 166.177C22.1768 166.177 20.8418 164.881 20.8418 163.253C20.8418 161.624 22.1768 160.328 23.7715 160.328C25.4032 160.328 26.7011 161.624 26.7011 163.253Z" fill="#00C1B2" fill-opacity="0.14"/>
<path d="M89.5903 59.6777C89.169 60.332 89.1689 60.7059 89.1689 60.7993C89.2158 60.8461 89.5435 61.033 90.3394 61.033H129.994C130.789 61.033 131.117 60.8461 131.164 60.7526C131.164 60.7059 131.164 60.332 130.743 59.6777L111.407 30.1417C111.033 29.5342 110.564 29.207 110.143 29.207C109.769 29.207 109.3 29.5342 108.926 30.1417L89.5903 59.6777Z" fill="#FFCF74"/>
<path fill-rule="evenodd" clip-rule="evenodd" d="M129.993 65.1914H90.3393C88.0921 65.1914 86.3598 64.3035 85.5171 62.7612C84.6744 61.219 84.8617 59.2562 86.0789 57.3868L105.414 27.8508C106.585 26.0282 108.317 25 110.143 25C112.016 25 113.748 26.0282 114.918 27.8508L134.254 57.3868C135.471 59.2562 135.658 61.219 134.816 62.7612C133.973 64.3035 132.241 65.1914 129.993 65.1914ZM89.5902 59.6768C89.1689 60.3311 89.1689 60.7049 89.1689 60.7984C89.2157 60.8451 89.5434 61.0321 90.3393 61.0321H129.993C130.789 61.0321 131.117 60.8451 131.164 60.7517C131.164 60.7049 131.164 60.3311 130.743 59.6768L111.407 30.1408C111.032 29.5332 110.564 29.2061 110.143 29.2061C109.768 29.2061 109.3 29.5332 108.926 30.1408L89.5902 59.6768Z" fill="#F9AB43"/>
<path d="M109.066 56.5919C108.754 56.2803 108.598 55.9064 108.598 55.4702C108.598 55.034 108.754 54.6758 109.066 54.3953C109.347 54.0838 109.706 53.928 110.143 53.928C110.58 53.928 110.939 54.0838 111.22 54.3953C111.532 54.6758 111.688 55.034 111.688 55.4702C111.688 55.9064 111.532 56.2803 111.22 56.5919C110.939 56.8723 110.58 57.0125 110.143 57.0125C109.706 57.0125 109.347 56.8723 109.066 56.5919ZM108.13 38.459H112.203L111.454 51.4511H108.879L108.13 38.459Z" fill="white"/>
</svg>
