<svg width="75" height="72" viewBox="0 0 75 72" fill="none" xmlns="http://www.w3.org/2000/svg">
<path d="M38.7078 0.349548C55.6609 -1.30479 75 5.78362 75 24.5357C61.5063 31.5124 48.1411 69.6172 29.3828 69.6172C10.6245 69.6172 0.5 56.3692 0.5 37.6172C0.5 18.8651 19.2466 2.24863 38.7078 0.349548Z" fill="#00C1B2" fill-opacity="0.11"/>
<path d="M56.3623 37.7778C55.9688 37.7778 55.6496 37.4532 55.6496 37.0528V20.5302L47.7049 12.45H19.8531C19.2296 12.45 18.7223 12.9652 18.7223 13.5987V28.3916C18.7223 28.792 18.4031 29.1166 18.0096 29.1166C17.616 29.1166 17.2969 28.792 17.2969 28.3916V13.5987C17.2969 12.1658 18.4435 11 19.8531 11H48C48.1889 11 48.3703 11.0764 48.5039 11.2123L56.8663 19.7172C56.9999 19.8532 57.075 20.0377 57.075 20.2299V37.0528C57.075 37.4532 56.7559 37.7778 56.3623 37.7778Z" fill="#00C1B2"/>
<path d="M56.3636 20.9559H49.845C48.4357 20.9559 47.2891 19.7896 47.2891 18.356V11.725C47.2891 11.4318 47.4628 11.1674 47.729 11.0553C47.9951 10.943 48.3017 11.005 48.5056 11.2123L56.8674 19.7182C57.0713 19.9256 57.1322 20.2375 57.022 20.5083C56.9118 20.7791 56.6519 20.9559 56.3636 20.9559ZM48.7145 13.4753V18.356C48.7145 18.99 49.2216 19.5059 49.845 19.5059H54.643L48.7145 13.4753Z" fill="#00C1B2"/>
<path d="M36.3543 20.6062H23.5369C23.1433 20.6062 22.8242 20.2816 22.8242 19.8812C22.8242 19.4809 23.1433 19.1562 23.5369 19.1562H36.3543C36.7478 19.1562 37.067 19.4809 37.067 19.8812C37.067 20.2816 36.7478 20.6062 36.3543 20.6062Z" fill="#00C1B2"/>
<path d="M50.8339 26.6355H23.5369C23.1433 26.6355 22.8242 26.3109 22.8242 25.9105C22.8242 25.5102 23.1433 25.1855 23.5369 25.1855H50.8339C51.2275 25.1855 51.5466 25.5102 51.5466 25.9105C51.5466 26.3109 51.2275 26.6355 50.8339 26.6355Z" fill="#00C1B2"/>
<path d="M50.8341 32.6629H32.0252C31.6316 32.6629 31.3125 32.3382 31.3125 31.9379C31.3125 31.5375 31.6316 31.2129 32.0252 31.2129H50.8341C51.2277 31.2129 51.5468 31.5375 51.5468 31.9379C51.5468 32.3382 51.2277 32.6629 50.8341 32.6629Z" fill="#00C1B2"/>
<path d="M59.4278 71.9992H14.9427C13.3201 71.9992 12 70.6563 12 69.0058V30.6594C12 29.0089 13.3201 27.666 14.9427 27.666H28.9157C30.0429 27.666 31.0535 28.3045 31.5532 29.3322L34.9545 36.3274H59.4278C61.0504 36.3274 62.3704 37.6702 62.3704 39.3208V69.0058C62.3706 70.6563 61.0505 71.9992 59.4278 71.9992ZM14.9427 29.116C14.1061 29.116 13.4254 29.8083 13.4254 30.6594V69.0059C13.4254 69.8569 14.1061 70.5494 14.9427 70.5494H59.4278C60.2643 70.5494 60.945 69.8571 60.945 69.0059V39.3208C60.945 38.4698 60.2643 37.7773 59.4278 37.7773H34.5117C34.2405 37.7773 33.9931 37.6209 33.8729 37.3738L30.2755 29.975C30.0178 29.4451 29.4968 29.1158 28.9155 29.1158H14.9427V29.116Z" fill="#00C1B2"/>
<path d="M28.0597 65.9168H18.0096C17.616 65.9168 17.2969 65.5921 17.2969 65.1918C17.2969 64.7914 17.616 64.4668 18.0096 64.4668H28.0597C28.4533 64.4668 28.7724 64.7914 28.7724 65.1918C28.7724 65.5921 28.4533 65.9168 28.0597 65.9168Z" fill="#00C1B2"/>
</svg>
