<svg width="70" height="77" viewBox="0 0 70 77" fill="none" xmlns="http://www.w3.org/2000/svg">
<path d="M23.995 21.8495L23.6745 22.1702V21.8094C23.6745 21.3356 23.2895 20.9505 22.8158 20.9505H14.3721C13.8984 20.9505 13.5134 21.3356 13.5134 21.8094V30.2555C13.5134 30.7293 13.8984 31.1144 14.3721 31.1144H22.8158C23.2895 31.1144 23.6745 30.7293 23.6745 30.2555V24.5995L25.2101 23.0635C25.545 22.7285 25.545 22.1845 25.2101 21.8481C24.8738 21.5145 24.3299 21.5131 23.995 21.8495ZM21.9571 29.3951H15.2308V22.6669H21.9571V23.8866L19.6974 26.147L18.2448 24.694C17.9099 24.359 17.366 24.359 17.0312 24.694C16.6963 25.029 16.6963 25.5729 17.0312 25.9094L19.0906 27.9693C19.2523 28.1297 19.4698 28.2213 19.6974 28.2213C19.9249 28.2213 20.1439 28.1311 20.3042 27.9693L21.9571 26.3159V29.3951ZM42.388 23.9696C42.388 24.4435 42.003 24.8285 41.5293 24.8285H27.5757C27.102 24.8285 26.7171 24.4435 26.7171 23.9696C26.7171 23.4958 27.102 23.1107 27.5757 23.1107H41.5293C42.003 23.1107 42.388 23.4944 42.388 23.9696ZM23.995 34.7319L23.6745 35.0526V34.6918C23.6745 34.218 23.2895 33.8329 22.8158 33.8329H14.3721C13.8984 33.8329 13.5134 34.218 13.5134 34.6918V43.1379C13.5134 43.6117 13.8984 43.9968 14.3721 43.9968H22.8158C23.2895 43.9968 23.6745 43.6117 23.6745 43.1379V37.4819L25.2101 35.9459C25.545 35.6109 25.545 35.0669 25.2101 34.7305C24.8738 34.3969 24.3299 34.3969 23.995 34.7319ZM21.9571 42.279H15.2308V35.5507H21.9571V36.7704L19.6974 39.0308L18.2448 37.5778C17.9099 37.2428 17.366 37.2428 17.0312 37.5778C16.6963 37.9128 16.6963 38.4568 17.0312 38.7932L19.0906 40.8532C19.2523 41.0135 19.4698 41.1051 19.6974 41.1051C19.9249 41.1051 20.1439 41.0149 20.3042 40.8532L21.9571 39.1997V42.279ZM23.995 47.6143L23.6745 47.935V47.5742C23.6745 47.1004 23.2895 46.7153 22.8158 46.7153H14.3721C13.8984 46.7153 13.5134 47.1004 13.5134 47.5742V56.0203C13.5134 56.4941 13.8984 56.8792 14.3721 56.8792H22.8158C23.2895 56.8792 23.6745 56.4941 23.6745 56.0203V50.3643L25.2101 48.8282C25.545 48.4933 25.545 47.9493 25.2101 47.6129C24.8738 47.2793 24.3299 47.2793 23.995 47.6143ZM21.9571 55.1614H15.2308V48.4331H21.9571V49.6528L19.6974 51.9132L18.2448 50.4602C17.9099 50.1252 17.366 50.1252 17.0312 50.4602C16.6963 50.7952 16.6963 51.3392 17.0312 51.6756L19.0906 53.7355C19.2523 53.8959 19.4698 53.9875 19.6974 53.9875C19.9249 53.9875 20.1439 53.8973 20.3042 53.7355L21.9571 52.0821V55.1614ZM42.388 36.1935C42.388 36.6673 42.003 37.0524 41.5293 37.0524H27.5757C27.102 37.0524 26.7171 36.6673 26.7171 36.1935C26.7171 35.7197 27.102 35.3346 27.5757 35.3346H41.5293C42.003 35.3346 42.388 35.7197 42.388 36.1935ZM36.091 48.4174C36.091 48.8912 35.706 49.2763 35.2323 49.2763H27.5743C27.1006 49.2763 26.7156 48.8912 26.7156 48.4174C26.7156 47.9436 27.1006 47.5585 27.5743 47.5585H35.2323C35.7074 47.5585 36.091 47.9436 36.091 48.4174ZM26.7171 29.2062C26.7171 28.7323 27.102 28.3473 27.5757 28.3473H37.6552C38.1289 28.3473 38.5139 28.7323 38.5139 29.2062C38.5139 29.68 38.1289 30.0651 37.6552 30.0651H27.5757C27.1006 30.0651 26.7171 29.68 26.7171 29.2062ZM38.5139 41.4301C38.5139 41.9039 38.1289 42.289 37.6552 42.289H27.5757C27.102 42.289 26.7171 41.9039 26.7171 41.4301C26.7171 40.9562 27.102 40.5711 27.5757 40.5711H37.6552C38.1289 40.5711 38.5139 40.9562 38.5139 41.4301ZM33.9657 53.6539C33.9657 54.1278 33.5808 54.5129 33.1071 54.5129H27.5757C27.102 54.5129 26.7171 54.1278 26.7171 53.6539C26.7171 53.1801 27.102 52.795 27.5757 52.795H33.1071C33.5808 52.795 33.9657 53.1801 33.9657 53.6539ZM63.5859 64.4821L51.7175 43.9195V14.6274C51.7175 11.322 49.0284 8.63359 45.7239 8.63359H41.462C41.4405 6.36317 39.4427 4.52222 36.9912 4.52222H34.6126C34.1661 1.9612 31.7561 0 28.8595 0C25.9629 0 23.5528 1.9612 23.1063 4.52222H20.7292C18.2762 4.52222 16.2784 6.36317 16.2569 8.63359H11.9936C8.6891 8.63359 6 11.322 6 14.6274V63.0062C6 66.3116 8.6891 69 11.9936 69H31.7317H60.9769C62.0817 69 63.032 68.4517 63.5844 67.494C64.1383 66.5378 64.1383 65.4398 63.5859 64.4821ZM17.9728 8.66938C17.9728 7.32946 19.2093 6.24006 20.7278 6.24006H23.8906C24.3643 6.24006 24.7493 5.85498 24.7493 5.38114C24.7493 3.36124 26.5926 1.71784 28.8595 1.71784C31.1264 1.71784 32.9697 3.36124 32.9697 5.38114C32.9697 5.85498 33.3546 6.24006 33.8284 6.24006H36.9912C38.511 6.24006 39.7461 7.32946 39.7461 8.66938V10.3142C39.7461 11.6541 38.5096 12.7435 36.9912 12.7435H20.7278C19.2079 12.7435 17.9728 11.6541 17.9728 10.3142V8.66938ZM7.71879 63.0062V14.6274C7.71879 12.2697 9.63651 10.3514 11.995 10.3514H16.2569C16.2784 12.6218 18.2762 14.4628 20.7292 14.4628H36.9926C39.4455 14.4628 41.4434 12.6218 41.4634 10.3514H45.7253C48.0824 10.3514 50.0016 12.2697 50.0016 14.6274V40.9448L48.964 39.1482C48.5619 38.451 47.9465 37.9715 47.2152 37.761V17.8512C47.2152 17.0295 46.5468 16.361 45.7253 16.361H11.9936C11.1721 16.361 10.5038 17.0295 10.5038 17.8512V63.0047C10.5038 63.8264 11.1721 64.495 11.9936 64.495H29.1171C28.6119 65.3782 28.5775 66.3817 29.0126 67.2822H11.9936C9.63651 67.2822 7.71879 65.3639 7.71879 63.0062ZM30.1088 62.7771H12.2211V18.0789H45.4964V37.761C44.7651 37.97 44.1497 38.4496 43.7475 39.1468L30.1088 62.7771ZM62.0989 66.6351C61.8585 67.0517 61.4606 67.2822 60.9783 67.2822H31.7317C31.2495 67.2822 30.853 67.0531 30.6112 66.6351C30.3707 66.2185 30.3707 65.759 30.6112 65.341L45.2345 40.0057C45.4749 39.5891 45.8728 39.3586 46.355 39.3586C46.8373 39.3586 47.2338 39.5877 47.4756 40.0057L62.0989 65.341C62.3394 65.759 62.3394 66.2185 62.0989 66.6351ZM46.355 46.1871C45.608 46.1871 44.8853 46.4991 44.3701 47.0431C43.8792 47.5628 43.6287 48.2299 43.6674 48.9242L44.1282 57.3416C44.1926 58.5197 45.13 59.3758 46.355 59.3758C47.5801 59.3758 48.5175 58.5212 48.5819 57.3416L49.0427 48.9242C49.0814 48.2299 48.8309 47.5628 48.34 47.0431C47.8248 46.4977 47.1021 46.1871 46.355 46.1871ZM46.8674 57.2471C46.8474 57.6164 46.5025 57.6565 46.355 57.6565C46.2076 57.6565 45.8627 57.6164 45.8427 57.2471L45.3819 48.8297C45.3661 48.5348 45.5221 48.3243 45.6166 48.2241C45.8084 48.0209 46.0774 47.9049 46.355 47.9049C46.6327 47.9049 46.9017 48.0209 47.0935 48.2241C47.188 48.3243 47.3454 48.5362 47.3282 48.8297L46.8674 57.2471ZM46.355 61.065C44.9754 61.065 43.8549 62.1873 43.8549 63.5659C43.8549 64.9445 44.9769 66.0682 46.355 66.0682C47.7332 66.0682 48.8552 64.9459 48.8552 63.5659C48.8552 62.1859 47.7347 61.065 46.355 61.065ZM46.355 64.3504C45.9228 64.3504 45.5722 63.9982 45.5722 63.5659C45.5722 63.1336 45.9243 62.7828 46.355 62.7828C46.7858 62.7828 47.1379 63.135 47.1379 63.5659C47.1393 63.9997 46.7873 64.3504 46.355 64.3504Z" fill="#00C1B2"/>
<path d="M69.2676 39.825C70.922 56.7781 63.8336 76.1172 45.0815 76.1172C38.1048 62.6235 0 49.2583 0 30.5C0 11.7417 13.248 1.61719 32 1.61719C50.752 1.61719 67.3686 20.3638 69.2676 39.825Z" fill="#00C1B2" fill-opacity="0.11"/>
</svg>
