<svg width="102" height="102" viewBox="0 0 102 102" fill="none" xmlns="http://www.w3.org/2000/svg">
<path d="M77.8091 29.4124C89.9736 41.3359 96.9745 60.7068 82.6096 72.7604C68.5915 66.9083 30.8106 81.1632 18.753 66.7935C6.69542 52.4238 10.336 36.1523 24.7009 24.0988C39.0658 12.0452 63.8449 15.7251 77.8091 29.4124Z" fill="#00C1B2" fill-opacity="0.11"/>
<path d="M76.7395 57.6427H58.2136C58.0234 57.6427 57.841 57.7183 57.7066 57.8528C57.5721 57.9873 57.4965 58.1697 57.4965 58.3599V62.5431C57.4965 62.7333 57.5721 62.9157 57.7066 63.0502C57.841 63.1847 58.0234 63.2603 58.2136 63.2603H76.7395C76.9297 63.2603 77.1121 63.1847 77.2466 63.0502C77.3811 62.9157 77.4567 62.7333 77.4567 62.5431V58.3599C77.4567 58.1697 77.3811 57.9873 77.2466 57.8528C77.1121 57.7183 76.9297 57.6427 76.7395 57.6427ZM75.9029 61.826H58.9308V59.077H75.9029V61.826ZM60.6714 85.0611C61.2389 85.0611 61.7936 84.8928 62.2655 84.5775C62.7373 84.2622 63.1051 83.8141 63.3222 83.2898C63.5394 82.7655 63.5962 82.1886 63.4855 81.632C63.3748 81.0754 63.1015 80.5642 62.7002 80.1629C62.2989 79.7617 61.7876 79.4884 61.2311 79.3777C60.6745 79.267 60.0976 79.3238 59.5733 79.541C59.049 79.7582 58.6009 80.126 58.2856 80.5979C57.9704 81.0697 57.8021 81.6245 57.8021 82.1919C57.803 82.9526 58.1056 83.6819 58.6435 84.2198C59.1814 84.7577 59.9107 85.0602 60.6714 85.0611ZM60.6714 80.757C60.9552 80.757 61.2326 80.8411 61.4686 80.9988C61.7046 81.1565 61.8885 81.3806 61.9971 81.6428C62.1057 81.905 62.1342 82.1935 62.0788 82.4719C62.0234 82.7503 61.8867 83.0059 61.6861 83.2066C61.4854 83.4073 61.2297 83.544 60.9513 83.5994C60.673 83.6547 60.3844 83.6263 60.1222 83.5177C59.86 83.4091 59.6359 83.2252 59.4782 82.9892C59.3206 82.7532 59.2364 82.4758 59.2364 82.1919C59.2367 81.8115 59.388 81.4466 59.6571 81.1776C59.9261 80.9085 60.2909 80.7571 60.6714 80.7567V80.757ZM67.4781 85.0611C68.0456 85.0611 68.6004 84.8928 69.0722 84.5775C69.5441 84.2622 69.9118 83.8141 70.129 83.2898C70.3462 82.7655 70.403 82.1886 70.2922 81.632C70.1815 81.0754 69.9082 80.5642 69.507 80.1629C69.1057 79.7617 68.5944 79.4884 68.0378 79.3777C67.4813 79.267 66.9043 79.3238 66.3801 79.541C65.8558 79.7582 65.4077 80.126 65.0924 80.5979C64.7771 81.0697 64.6089 81.6245 64.6089 82.1919C64.6098 82.9526 64.9124 83.6819 65.4503 84.2198C65.9882 84.7577 66.7175 85.0602 67.4781 85.0611ZM67.4781 80.757C67.762 80.757 68.0394 80.8411 68.2754 80.9988C68.5114 81.1565 68.6953 81.3806 68.8039 81.6428C68.9125 81.905 68.9409 82.1935 68.8856 82.4719C68.8302 82.7503 68.6935 83.0059 68.4928 83.2066C68.2921 83.4073 68.0365 83.544 67.7581 83.5994C67.4797 83.6547 67.1912 83.6263 66.929 83.5177C66.6668 83.4091 66.4427 83.2252 66.285 82.9892C66.1273 82.7532 66.0432 82.4758 66.0432 82.1919C66.0435 81.8115 66.1948 81.4466 66.4638 81.1776C66.7329 80.9085 67.0977 80.7571 67.4781 80.7567V80.757ZM74.285 85.0611C74.8525 85.0611 75.4073 84.8928 75.8791 84.5775C76.351 84.2622 76.7187 83.8141 76.9359 83.2898C77.153 82.7655 77.2099 82.1886 77.0991 81.632C76.9884 81.0754 76.7151 80.5642 76.3139 80.1629C75.9126 79.7617 75.4013 79.4884 74.8447 79.3777C74.2881 79.267 73.7112 79.3238 73.1869 79.541C72.6627 79.7582 72.2146 80.126 71.8993 80.5979C71.584 81.0697 71.4158 81.6245 71.4158 82.1919C71.4167 82.9526 71.7193 83.6819 72.2572 84.2198C72.7951 84.7577 73.5243 85.0602 74.285 85.0611ZM74.285 80.757C74.5688 80.757 74.8463 80.8411 75.0823 80.9988C75.3183 81.1565 75.5022 81.3806 75.6108 81.6428C75.7194 81.905 75.7478 82.1935 75.6924 82.4719C75.6371 82.7503 75.5004 83.0059 75.2997 83.2066C75.099 83.4073 74.8433 83.544 74.565 83.5994C74.2866 83.6547 73.9981 83.6263 73.7359 83.5177C73.4737 83.4091 73.2496 83.2252 73.0919 82.9892C72.9342 82.7532 72.8501 82.4758 72.8501 82.1919C72.8504 81.8114 73.0017 81.4466 73.2707 81.1775C73.5397 80.9084 73.9045 80.7571 74.285 80.7567V80.757ZM60.6714 78.7294C61.2389 78.7294 61.7936 78.5611 62.2654 78.2458C62.7373 77.9306 63.105 77.4825 63.3222 76.9582C63.5394 76.4339 63.5962 75.857 63.4855 75.3004C63.3748 74.7438 63.1015 74.2326 62.7002 73.8313C62.299 73.43 61.7877 73.1568 61.2311 73.046C60.6746 72.9353 60.0976 72.9922 59.5734 73.2093C59.0491 73.4265 58.601 73.7942 58.2857 74.2661C57.9704 74.7379 57.8021 75.2927 57.8021 75.8602C57.803 76.6209 58.1056 77.3502 58.6435 77.8881C59.1814 78.426 59.9107 78.7285 60.6714 78.7294ZM60.6714 74.4253C60.9552 74.4253 61.2327 74.5095 61.4687 74.6672C61.7047 74.8249 61.8886 75.049 61.9972 75.3113C62.1058 75.5736 62.1342 75.8621 62.0787 76.1405C62.0233 76.4189 61.8866 76.6746 61.6858 76.8752C61.485 77.0759 61.2293 77.2125 60.9509 77.2678C60.6725 77.3231 60.3839 77.2945 60.1217 77.1858C59.8595 77.0771 59.6355 76.8931 59.4779 76.657C59.3203 76.4209 59.2363 76.1434 59.2364 75.8596C59.237 75.4792 59.3884 75.1147 59.6574 74.8458C59.9264 74.5769 60.291 74.4257 60.6714 74.4253ZM67.4781 78.7294C68.0456 78.7294 68.6004 78.5611 69.0722 78.2458C69.5441 77.9306 69.9118 77.4825 70.129 76.9582C70.3461 76.4339 70.403 75.857 70.2923 75.3004C70.1815 74.7438 69.9083 74.2326 69.507 73.8313C69.1057 73.43 68.5945 73.1568 68.0379 73.046C67.4813 72.9353 66.9044 72.9922 66.3801 73.2093C65.8558 73.4265 65.4077 73.7942 65.0925 74.2661C64.7772 74.7379 64.6089 75.2927 64.6089 75.8602C64.6098 76.6209 64.9123 77.3502 65.4502 77.8881C65.9881 78.426 66.7174 78.7285 67.4781 78.7294ZM67.4781 74.4253C67.762 74.4253 68.0395 74.5095 68.2755 74.6672C68.5115 74.8249 68.6954 75.049 68.804 75.3113C68.9126 75.5736 68.9409 75.8621 68.8855 76.1405C68.8301 76.4189 68.6933 76.6746 68.4926 76.8752C68.2918 77.0759 68.0361 77.2125 67.7577 77.2678C67.4792 77.3231 67.1907 77.2945 66.9285 77.1858C66.6663 77.0771 66.4422 76.8931 66.2847 76.657C66.1271 76.4209 66.043 76.1434 66.0432 75.8596C66.0438 75.4792 66.1952 75.1147 66.4642 74.8458C66.7332 74.5769 67.0978 74.4257 67.4781 74.4253ZM74.285 78.7294C74.8525 78.7294 75.4073 78.5611 75.8791 78.2458C76.3509 77.9306 76.7187 77.4825 76.9359 76.9582C77.153 76.4339 77.2099 75.857 77.0991 75.3004C76.9884 74.7438 76.7152 74.2326 76.3139 73.8313C75.9126 73.43 75.4014 73.1568 74.8448 73.046C74.2882 72.9353 73.7113 72.9922 73.187 73.2093C72.6627 73.4265 72.2146 73.7942 71.8994 74.2661C71.5841 74.7379 71.4158 75.2927 71.4158 75.8602C71.4166 76.6209 71.7192 77.3502 72.2571 77.8881C72.795 78.426 73.5243 78.7285 74.285 78.7294ZM74.285 74.4253C74.5689 74.4253 74.8463 74.5095 75.0823 74.6672C75.3183 74.8249 75.5023 75.049 75.6109 75.3113C75.7194 75.5736 75.7478 75.8621 75.6924 76.1405C75.637 76.4189 75.5002 76.6746 75.2995 76.8752C75.0987 77.0759 74.843 77.2125 74.5645 77.2678C74.2861 77.3231 73.9976 77.2945 73.7354 77.1858C73.4732 77.0771 73.2491 76.8931 73.0915 76.657C72.934 76.4209 72.8499 76.1434 72.8501 75.8596C72.8506 75.4792 73.002 75.1146 73.271 74.8458C73.54 74.5769 73.9047 74.4257 74.285 74.4253ZM60.6714 72.3981C61.2389 72.3981 61.7936 72.2298 62.2654 71.9145C62.7373 71.5993 63.105 71.1511 63.3222 70.6269C63.5394 70.1026 63.5962 69.5257 63.4855 68.9691C63.3748 68.4125 63.1015 67.9013 62.7002 67.5C62.299 67.0987 61.7877 66.8254 61.2311 66.7147C60.6746 66.604 60.0976 66.6608 59.5734 66.878C59.0491 67.0952 58.601 67.4629 58.2857 67.9348C57.9704 68.4066 57.8021 68.9614 57.8021 69.5288C57.803 70.2896 58.1056 71.0189 58.6435 71.5568C59.1814 72.0947 59.9107 72.3972 60.6714 72.3981ZM60.6714 68.0939C60.9552 68.0939 61.2326 68.178 61.4686 68.3357C61.7046 68.4934 61.8885 68.7175 61.9971 68.9797C62.1057 69.2419 62.1342 69.5304 62.0788 69.8088C62.0234 70.0872 61.8867 70.3428 61.6861 70.5435C61.4854 70.7442 61.2297 70.8809 60.9513 70.9363C60.673 70.9916 60.3844 70.9632 60.1222 70.8546C59.86 70.746 59.6359 70.5621 59.4782 70.3261C59.3206 70.0901 59.2364 69.8127 59.2364 69.5288C59.2368 69.1484 59.3882 68.7837 59.6572 68.5146C59.9262 68.2456 60.2909 68.0943 60.6714 68.0939ZM67.4781 72.3981C68.0456 72.3981 68.6004 72.2298 69.0722 71.9145C69.5441 71.5993 69.9118 71.1511 70.129 70.6269C70.3461 70.1026 70.403 69.5257 70.2923 68.9691C70.1815 68.4125 69.9083 67.9013 69.507 67.5C69.1057 67.0987 68.5945 66.8254 68.0379 66.7147C67.4813 66.604 66.9044 66.6608 66.3801 66.878C65.8558 67.0952 65.4077 67.4629 65.0925 67.9348C64.7772 68.4066 64.6089 68.9614 64.6089 69.5288C64.6098 70.2896 64.9123 71.0189 65.4502 71.5568C65.9881 72.0947 66.7174 72.3972 67.4781 72.3981ZM67.4781 68.0939C67.762 68.0939 68.0394 68.178 68.2754 68.3357C68.5114 68.4934 68.6953 68.7175 68.8039 68.9797C68.9125 69.2419 68.9409 69.5304 68.8856 69.8088C68.8302 70.0872 68.6935 70.3428 68.4928 70.5435C68.2921 70.7442 68.0365 70.8809 67.7581 70.9363C67.4797 70.9916 67.1912 70.9632 66.929 70.8546C66.6668 70.746 66.4427 70.5621 66.285 70.3261C66.1273 70.0901 66.0432 69.8127 66.0432 69.5288C66.0436 69.1484 66.1949 68.7837 66.464 68.5146C66.733 68.2456 67.0977 68.0943 67.4781 68.0939ZM74.285 72.3981C74.8525 72.3981 75.4073 72.2298 75.8791 71.9145C76.3509 71.5993 76.7187 71.1511 76.9359 70.6269C77.153 70.1026 77.2099 69.5257 77.0991 68.9691C76.9884 68.4125 76.7152 67.9013 76.3139 67.5C75.9126 67.0987 75.4014 66.8254 74.8448 66.7147C74.2882 66.604 73.7113 66.6608 73.187 66.878C72.6627 67.0952 72.2146 67.4629 71.8994 67.9348C71.5841 68.4066 71.4158 68.9614 71.4158 69.5288C71.4166 70.2896 71.7192 71.0189 72.2571 71.5568C72.795 72.0947 73.5243 72.3972 74.285 72.3981ZM74.285 68.0939C74.5688 68.0939 74.8463 68.178 75.0823 68.3357C75.3183 68.4934 75.5022 68.7175 75.6108 68.9797C75.7194 69.2419 75.7478 69.5304 75.6924 69.8088C75.6371 70.0872 75.5004 70.3428 75.2997 70.5435C75.099 70.7442 74.8433 70.8809 74.565 70.9363C74.2866 70.9916 73.9981 70.9632 73.7359 70.8546C73.4737 70.746 73.2496 70.5621 73.0919 70.3261C72.9342 70.0901 72.8501 69.8127 72.8501 69.5288C72.8505 69.1484 73.0018 68.7836 73.2708 68.5146C73.5398 68.2456 73.9046 68.0943 74.285 68.0939ZM47.3432 64.336H39.8731C39.6829 64.336 39.5005 64.4115 39.366 64.546C39.2316 64.6805 39.156 64.8629 39.156 65.0531C39.156 65.2433 39.2316 65.4257 39.366 65.5602C39.5005 65.6947 39.6829 65.7702 39.8731 65.7702H47.3432C47.5334 65.7702 47.7158 65.6947 47.8503 65.5602C47.9848 65.4257 48.0604 65.2433 48.0604 65.0531C48.0604 64.8629 47.9848 64.6805 47.8503 64.546C47.7158 64.4115 47.5334 64.336 47.3432 64.336ZM36.4589 65.7702H37.1879C37.3781 65.7702 37.5605 65.6947 37.695 65.5602C37.8295 65.4257 37.9051 65.2433 37.9051 65.0531C37.9051 64.8629 37.8295 64.6805 37.695 64.546C37.5605 64.4115 37.3781 64.336 37.1879 64.336H36.4589C36.2687 64.336 36.0863 64.4115 35.9518 64.546C35.8173 64.6805 35.7417 64.8629 35.7417 65.0531C35.7417 65.2433 35.8173 65.4257 35.9518 65.5602C36.0863 65.6947 36.2687 65.7702 36.4589 65.7702ZM46.2789 70.4316H42.3779C42.1878 70.4316 42.0053 70.5071 41.8709 70.6416C41.7364 70.7761 41.6608 70.9585 41.6608 71.1487C41.6608 71.3389 41.7364 71.5213 41.8709 71.6558C42.0053 71.7903 42.1878 71.8659 42.3779 71.8659H46.2789C46.4691 71.8659 46.6515 71.7903 46.786 71.6558C46.9205 71.5213 46.996 71.3389 46.996 71.1487C46.996 70.9585 46.9205 70.7761 46.786 70.6416C46.6515 70.5071 46.4691 70.4316 46.2789 70.4316ZM39.5761 70.4316H36.4589C36.2687 70.4316 36.0863 70.5071 35.9518 70.6416C35.8173 70.7761 35.7417 70.9585 35.7417 71.1487C35.7417 71.3389 35.8173 71.5213 35.9518 71.6558C36.0863 71.7903 36.2687 71.8659 36.4589 71.8659H39.5761C39.7663 71.8659 39.9487 71.7903 40.0832 71.6558C40.2177 71.5213 40.2932 71.3389 40.2932 71.1487C40.2932 70.9585 40.2177 70.7761 40.0832 70.6416C39.9487 70.5071 39.7663 70.4316 39.5761 70.4316ZM33.5921 32.998C33.4019 32.998 33.2195 33.0736 33.085 33.2081C32.9506 33.3426 32.875 33.525 32.875 33.7152V34.0036C32.875 34.1938 32.9506 34.3762 33.085 34.5107C33.2195 34.6452 33.4019 34.7207 33.5921 34.7207C33.7823 34.7207 33.9647 34.6452 34.0992 34.5107C34.2337 34.3762 34.3093 34.1938 34.3093 34.0036V33.7152C34.3093 33.525 34.2337 33.3426 34.0992 33.2081C33.9647 33.0736 33.7823 32.998 33.5921 32.998ZM33.5921 36.0869C33.4019 36.0869 33.2195 36.1624 33.085 36.2969C32.9506 36.4314 32.875 36.6138 32.875 36.804V46.3033C32.875 46.4935 32.9506 46.6759 33.085 46.8104C33.2195 46.9449 33.4019 47.0205 33.5921 47.0205C33.7823 47.0205 33.9647 46.9449 34.0992 46.8104C34.2337 46.6759 34.3093 46.4935 34.3093 46.3033V36.804C34.3093 36.6138 34.2337 36.4314 34.0992 36.2969C33.9647 36.1624 33.7823 36.0869 33.5921 36.0869ZM48.365 35.1552C46.2721 35.1552 44.2262 35.7758 42.486 36.9386C40.7458 38.1013 39.3895 39.754 38.5886 41.6876C37.7876 43.6212 37.5781 45.7489 37.9864 47.8016C38.3947 49.8543 39.4025 51.7398 40.8824 53.2198C42.3624 54.6997 44.2479 55.7075 46.3006 56.1158C48.3533 56.5241 50.481 56.3146 52.4146 55.5137C54.3482 54.7127 56.0009 53.3564 57.1636 51.6162C58.3264 49.876 58.947 47.8301 58.947 45.7372C58.9439 42.9316 57.828 40.2419 55.8441 38.2581C53.8603 36.2742 51.1706 35.1583 48.365 35.1552ZM57.4965 45.2125H49.9039L55.3161 39.8003C56.6169 41.3163 57.3831 43.2181 57.4965 45.2125ZM48.365 36.5894C50.543 36.5881 52.6494 37.3675 54.3019 38.7861L48.3685 44.7196L43.699 37.8738C45.1097 37.0319 46.7222 36.5881 48.365 36.5894ZM48.365 54.8848C46.4834 54.8857 44.6472 54.3061 43.1071 53.2249C41.5671 52.1438 40.398 50.6138 39.7596 48.8438C39.1211 47.0737 39.0443 45.1498 39.5396 43.3345C40.0349 41.5192 41.0782 39.9009 42.5272 38.7004L47.7332 46.3337C47.7991 46.4302 47.8874 46.5091 47.9907 46.5637C48.0939 46.6182 48.2089 46.6467 48.3257 46.6467H57.4674C57.239 48.903 56.1819 50.9944 54.5004 52.5162C52.819 54.038 50.6329 54.882 48.365 54.8848Z" fill="#00C1B2"/>
<path d="M77.0529 54.6534H67.4183V39.2039C67.4219 38.6799 67.2191 38.1755 66.8537 37.8L57.8871 28.6065C57.7005 28.4152 57.4777 28.2631 57.2317 28.159C56.9857 28.0548 56.7214 28.0008 56.4542 28H31.372C31.1108 28.0016 30.8525 28.0549 30.6121 28.1571C30.3717 28.2592 30.1539 28.408 29.9715 28.5949C29.789 28.7818 29.6454 29.0031 29.5491 29.2458C29.4528 29.4886 29.4056 29.7481 29.4104 30.0093V31.9442H27.5025C27.2381 31.9388 26.9753 31.9857 26.7291 32.0823C26.483 32.179 26.2584 32.3234 26.0683 32.5073C25.88 32.6875 25.7296 32.9036 25.6262 33.1429C25.5228 33.3821 25.4684 33.6397 25.4661 33.9003V35.0518H24.0199C23.7566 35.0468 23.4948 35.0942 23.25 35.1914C23.0051 35.2885 22.782 35.4333 22.5937 35.6175C22.4064 35.7986 22.2574 36.0154 22.1555 36.2551C22.0535 36.4948 22.0006 36.7525 22 37.013V84.6517C22.0019 85.1883 22.2151 85.7026 22.5934 86.0832C22.9718 86.4638 23.4847 86.6801 24.0214 86.6853H54.8675C55.2079 87.097 55.6352 87.4283 56.1187 87.6556C56.6022 87.8829 57.13 88.0005 57.6643 88H77.0529C78.0162 88 78.9401 87.6173 79.6213 86.9361C80.3025 86.2549 80.6852 85.331 80.6853 84.3676V58.2858C80.6852 57.3224 80.3025 56.3985 79.6213 55.7173C78.9401 55.0361 78.0162 54.6534 77.0529 54.6534ZM57.498 30.26L65.039 38.0398H61.1285C60.6496 38.0361 60.1761 37.9376 59.7354 37.7501C59.2946 37.5626 58.8953 37.2898 58.5604 36.9474C57.8769 36.2566 57.4949 35.3231 57.498 34.3513V30.26ZM26.9004 33.8995C26.9032 33.8271 26.9209 33.7561 26.9524 33.6908C26.9839 33.6256 27.0285 33.5676 27.0834 33.5204C27.1993 33.4195 27.3505 33.3685 27.5039 33.3785H29.4104V77.7775C29.4059 78.0371 29.4535 78.295 29.5505 78.5359C29.6474 78.7767 29.7916 78.9957 29.9746 79.1799C30.1576 79.3641 30.3757 79.5097 30.616 79.6081C30.8562 79.7065 31.1138 79.7558 31.3734 79.753H54.0319V82.0239H27.5043C27.3449 82.0158 27.1943 81.948 27.0825 81.8341C26.9706 81.7202 26.9056 81.5684 26.9004 81.4088V33.8995ZM24.0217 85.251C23.8659 85.2468 23.7179 85.1821 23.6091 85.0705C23.4987 84.9587 23.4361 84.8085 23.4343 84.6514V37.012C23.4355 36.9397 23.4516 36.8685 23.4817 36.8028C23.5117 36.7371 23.555 36.6784 23.6089 36.6302C23.6646 36.58 23.7298 36.5414 23.8006 36.5167C23.8714 36.4919 23.9465 36.4815 24.0214 36.4861H25.4661V81.4091C25.4718 81.9488 25.688 82.465 26.0686 82.8477C26.4492 83.2304 26.9642 83.4495 27.5039 83.4582H54.0319V84.3676C54.0318 84.6654 54.0683 84.9621 54.1406 85.251H24.0217ZM54.0319 58.2858V64.6638C53.967 64.5629 53.8779 64.4799 53.7726 64.4223C53.6674 64.3648 53.5493 64.3347 53.4294 64.3347H50.7459C50.5557 64.3347 50.3733 64.4102 50.2388 64.5447C50.1043 64.6792 50.0287 64.8616 50.0287 65.0518C50.0287 65.242 50.1043 65.4244 50.2388 65.5589C50.3733 65.6934 50.5557 65.7689 50.7459 65.7689H53.4294C53.5493 65.7689 53.6674 65.7388 53.7726 65.6813C53.8779 65.6237 53.967 65.5407 54.0319 65.4398V70.4303H49.0378C48.8476 70.4303 48.6652 70.5058 48.5307 70.6403C48.3962 70.7748 48.3206 70.9572 48.3206 71.1474C48.3206 71.3376 48.3962 71.52 48.5307 71.6545C48.6652 71.789 48.8476 71.8645 49.0378 71.8645H54.0319V78.3187H31.3737C31.3028 78.3219 31.2319 78.31 31.1659 78.2839C31.0998 78.2578 31.04 78.2181 30.9903 78.1673C30.9402 78.116 30.9013 78.0549 30.8762 77.9877C30.8511 77.9205 30.8404 77.8489 30.8446 77.7773V30.008C30.8399 29.9352 30.8499 29.8621 30.8742 29.7933C30.8985 29.7246 30.9366 29.6614 30.986 29.6078C31.0355 29.5541 31.0953 29.5111 31.1619 29.4812C31.2285 29.4514 31.3004 29.4354 31.3734 29.4343H56.0637V34.3509C56.061 35.7003 56.5918 36.996 57.5404 37.9557C58.489 38.9154 59.7785 39.4612 61.1278 39.4741H65.9841V54.6534H57.6643C56.7009 54.6534 55.777 55.0361 55.0958 55.7173C54.4146 56.3985 54.0319 57.3224 54.0319 58.2858ZM79.3705 84.3676C79.3666 84.9519 79.1318 85.5109 78.7173 85.9227C78.3028 86.3345 77.7423 86.5656 77.1581 86.5657H57.722C56.5099 86.5657 55.4661 85.5797 55.4661 84.3676V65.7689H79.3705V84.3676ZM79.3705 64.3347H55.4661V58.2883C55.4661 57.0762 56.5099 56.0877 57.722 56.0877H77.1581C77.7426 56.0883 78.3031 56.32 78.7176 56.7322C79.132 57.1445 79.3667 57.7038 79.3705 58.2883V64.3347Z" fill="#00C1B2"/>
</svg>
