<svg width="318" height="276" viewBox="0 0 318 276" fill="none" xmlns="http://www.w3.org/2000/svg">
<g style="mix-blend-mode:multiply" opacity="0.5">
<path d="M318 228.417C318 254.645 246.805 275.87 159 275.87C71.1946 275.87 0 254.645 0 228.417C0 202.225 71.1946 181 159 181C246.805 181 318 202.225 318 228.417Z" fill="#9DD4CE" fill-opacity="0.23"/>
</g>
<g style="mix-blend-mode:multiply" opacity="0.5">
<path d="M304.115 212.563C304.115 226.358 239.145 237.504 159 237.504C78.8558 237.504 13.8857 226.358 13.8857 212.563C13.8857 198.769 78.8558 187.586 159 187.586C239.145 187.586 304.115 198.769 304.115 212.563Z" fill="#9DD4CE" fill-opacity="0.3"/>
</g>
<path d="M45.7727 163.916C44.5544 162.447 42.2253 162.375 40.7204 161.156C38.9646 159.723 38.7496 157.142 38.6779 154.884C38.6063 151.419 38.5227 147.954 38.4271 144.489C38.3913 143.342 38.3554 142.195 38.7854 141.155C39.1796 140.116 40.1829 139.184 41.2937 139.22C43.4795 139.256 44.0886 142.195 45.4502 143.879C47.8152 146.855 53.0108 146.281 55.1249 149.435C56.7374 151.873 55.6983 155.35 57.239 157.823C58.8157 160.296 62.2556 160.726 64.4055 162.698C66.6271 164.705 67.1288 167.967 67.4871 170.978C67.6304 172.304 67.7737 173.809 66.9496 174.885C66.0896 176.032 64.4772 176.283 63.0439 176.426C59.8906 176.784 56.5941 177.107 53.5125 176.283C50.4309 175.458 47.5285 173.128 46.9552 169.974C46.561 167.931 47.1343 165.529 45.7727 163.916Z" fill="#04978C"/>
<path d="M40.6133 154.705C43.0499 155.828 45.4865 156.951 47.9231 158.074" stroke="#11720E" stroke-width="0.9" stroke-linecap="round" stroke-linejoin="round"/>
<path d="M49.3916 150.045C50.2157 154.239 51.3982 158.325 52.8673 162.304" stroke="#11720E" stroke-width="0.9" stroke-linecap="round" stroke-linejoin="round"/>
<path d="M51.04 170.547C52.4972 170.881 53.9544 171.228 55.4116 171.586C57.884 172.16 60.3564 172.733 62.8289 173.271" stroke="#11720E" stroke-width="0.9" stroke-linecap="round" stroke-linejoin="round"/>
<path d="M60.3926 163.736C61.0734 166.676 62.0409 169.579 63.2592 172.339" stroke="#11720E" stroke-width="0.9" stroke-linecap="round" stroke-linejoin="round"/>
<path d="M54.2646 158.396C54.9096 161.372 55.7696 164.311 56.8446 167.178" stroke="#11720E" stroke-width="0.9" stroke-linecap="round" stroke-linejoin="round"/>
<path d="M49.1768 166.963C51.6372 167.274 54.0858 167.417 56.5224 167.393" stroke="#11720E" stroke-width="0.9" stroke-linecap="round" stroke-linejoin="round"/>
<path d="M41.2578 148.504C42.5836 150.26 44.0527 151.909 45.7368 153.379" stroke="#11720E" stroke-width="0.9" stroke-linecap="round" stroke-linejoin="round"/>
<path d="M44.9131 146.639C45.5103 149.1 45.9761 151.573 46.3105 154.058" stroke="#11720E" stroke-width="0.9" stroke-linecap="round" stroke-linejoin="round"/>
<path d="M54.8382 166.605C48.4601 160.188 43.7302 152.159 41.2578 143.449C41.5803 144.596 42.2611 145.743 42.7986 146.819C43.348 147.942 43.9333 149.065 44.5544 150.188C45.7727 152.386 47.1104 154.513 48.5676 156.568C51.47 160.69 54.8024 164.526 58.4931 167.967C62.1839 171.408 66.2329 174.49 70.5328 177.107C71.4644 177.656 72.408 178.194 73.3635 178.72C74.0802 179.114 75.621 179.544 75.9076 180.405C76.1226 181.086 75.4776 181.229 74.9402 181.193C74.331 181.193 73.7935 180.835 73.256 180.512C66.8062 176.318 60.2847 172.089 54.8382 166.605Z" fill="#11720E"/>
<path d="M46.0233 184.67C45.665 182.985 47.3849 182.018 49.1407 181.874C51.3623 181.695 53.8348 182.842 55.4472 183.451C57.6688 184.276 60.1771 185.745 61.9328 186.713C58.8513 186.57 55.1964 187.143 51.6132 187.287C50.5024 187.358 49.3557 187.323 48.3166 186.928C47.2775 186.534 46.3458 185.745 46.0233 184.67Z" fill="#11720E"/>
<path d="M64.1906 172.34C64.6922 172.376 65.1222 172.662 65.4447 173.057C66.1614 173.845 66.3405 174.992 66.1972 176.032C66.018 177.107 65.588 178.075 65.1581 179.043C64.0114 181.623 62.9484 184.228 61.969 186.857C61.5748 184.634 61.1807 182.412 61.0732 180.118C60.9657 178.111 61.109 175.996 61.9331 174.168C62.3631 173.236 63.1873 172.268 64.1906 172.34Z" fill="#11720E"/>
<path d="M48.4601 173.092C47.9226 172.232 47.421 171.372 47.3135 170.368C47.206 169.4 47.5643 168.289 48.4243 167.823C49.7859 167.142 51.3267 168.182 52.3658 169.257C57.024 173.917 60.4997 180.44 61.9689 186.856C59.7831 184.526 56.6299 182.483 54.1933 180.404C51.8642 178.361 50.0726 175.745 48.4601 173.092Z" fill="#11720E"/>
<path d="M100.775 216.105C94.7913 213.668 88.9507 210.836 83.2892 207.646C81.1392 206.463 79.0251 205.172 77.0185 203.739C70.2462 198.9 65.0505 192.125 60.7148 184.992C63.8323 189.401 71.4287 197.645 75.7286 200.979C85.5108 208.47 91.7456 211.66 103.14 216.284C102.459 216.714 101.564 216.428 100.775 216.105Z" fill="#11720E"/>
<path d="M90.7059 192.878C91.9958 193.882 92.3183 195.674 92.4616 197.287C92.8558 201.982 92.5333 206.714 91.4583 211.266C89.7742 209.366 88.5201 207.108 87.3735 204.85C86.3702 202.843 85.3669 200.764 85.0085 198.541C84.6144 196.319 84.6502 193.38 86.2627 192.089C87.9109 191.157 89.4876 191.91 90.7059 192.878Z" fill="#11720E"/>
<path d="M56.1278 206.786C56.522 207.037 57.0236 207.216 57.5253 207.288C58.6361 207.503 59.8185 207.288 60.9293 206.965C65.3009 205.782 69.5291 203.273 72.3598 199.689C71.6074 199.151 70.604 199.079 69.6366 199.043C67.0208 199.008 64.4051 199.366 61.7893 199.832C59.5677 200.226 53.4762 201.768 54.8378 205.316C55.0887 205.961 55.5545 206.427 56.1278 206.786Z" fill="#11720E"/>
<path d="M53.5479 191.552C55.877 191.444 58.1703 191.624 60.4636 192.054C61.5385 192.269 62.5777 192.556 63.6526 192.842C64.9187 193.177 66.1848 193.511 67.4508 193.846C63.9751 197.144 58.7794 198.542 54.1212 197.43C52.9746 197.144 51.7921 196.714 51.0397 195.782C50.2514 194.885 50.0364 193.416 50.8247 192.52C51.4697 191.767 52.5805 191.624 53.5479 191.552Z" fill="#11720E"/>
<path d="M70.4969 179.4C70.7477 179.4 70.9985 179.472 71.2135 179.544C72.7185 180.153 73.6501 181.802 73.7934 183.415C73.9009 185.064 73.3993 186.677 72.7901 188.182C71.8226 190.62 70.6043 192.985 69.1711 195.172C68.5977 194.67 68.4544 193.881 68.3469 193.129C67.9528 190.189 67.8094 187.25 67.9528 184.275C68.0603 182.77 68.2753 181.085 69.3502 180.01C69.6727 179.687 70.0669 179.436 70.4969 179.4Z" fill="#11720E"/>
<path d="M80.5295 205.279C78.5946 203.129 77.018 200.297 76.0147 197.645C75.1547 195.458 73.3272 188.218 76.3013 186.82C77.0538 186.497 77.9496 186.891 78.5588 187.429C80.422 189.078 80.7087 191.874 80.7804 194.383C80.852 196.354 80.8878 198.29 80.8162 200.225C80.7803 201.695 81.067 203.917 80.5295 205.279Z" fill="#11720E"/>
<path d="M66.5549 214.599C66.8774 215.137 67.3432 215.639 67.9524 216.033C68.9557 216.678 70.3173 216.642 71.4281 216.176C72.5389 215.746 73.4706 214.922 74.2947 214.062C76.7313 211.588 78.6662 208.613 79.8845 205.352C76.4088 205.387 71.034 205.925 68.2032 208.112C66.1966 209.689 65.3366 212.556 66.5549 214.599Z" fill="#11720E"/>
<path d="M82.3933 223.023C84.2566 221.446 85.6541 219.403 86.9082 217.324C88.1265 215.269 89.2015 213.13 90.1331 210.908C87.3382 210.585 84.6149 211.804 82.1067 213.059C80.7092 213.776 79.2759 214.528 78.1651 215.639C77.4843 216.32 76.911 217.109 76.5168 217.933C75.9435 219.152 75.6927 220.55 76.051 221.84C76.4093 223.095 77.4485 224.242 78.7743 224.421C80.1001 224.6 81.3542 223.848 82.3933 223.023Z" fill="#11720E"/>
<path d="M89.2016 108.106C90.8499 106.314 93.3582 107.604 94.899 109.468C96.9056 111.905 97.5147 115.633 98.1239 117.999C98.948 121.189 99.0197 124.773 99.8438 127.963C97.6222 123.447 93.7165 120.651 90.6349 116.637C89.7033 115.418 88.8433 114.056 88.4492 112.55C88.055 111.045 88.2342 109.324 89.2016 108.106Z" fill="#11720E"/>
<path d="M117.903 119.219C118.226 119.792 118.261 120.545 118.118 121.226C117.76 122.66 116.577 123.771 115.251 124.452C113.89 125.097 112.421 125.384 110.952 125.635C107.082 126.387 103.391 127.068 99.5928 128.036C101.85 125.814 103.928 123.735 106.437 121.799C108.694 120.079 111.202 118.573 113.997 118.072C115.431 117.785 117.186 117.964 117.903 119.219Z" fill="#11720E"/>
<path d="M104.466 101.654C105.039 100.4 105.648 99.1094 106.688 98.1774C107.727 97.2813 109.267 96.8153 110.522 97.4605C112.385 98.4283 112.385 101.081 111.991 103.124C110.342 112.192 105.792 121.44 99.5928 128.251C99.8436 123.591 100.166 118.609 100.668 114.128C101.134 109.791 102.674 105.633 104.466 101.654Z" fill="#11720E"/>
<path d="M96.7624 196.283C94.7916 187.429 93.3583 178.432 92.4983 169.4C92.1758 165.959 91.925 162.482 91.9967 159.041C92.1758 147.356 97.1207 132.803 100.991 125.061C98.0882 132.05 94.5408 147.75 94.1825 155.385C93.3225 172.59 94.6483 182.34 98.4823 199.15C97.4074 198.684 97.0132 197.43 96.7624 196.283Z" fill="#11720E"/>
<path d="M115.467 166.103C115.324 168.397 113.532 170.225 111.776 171.694C106.724 175.888 100.991 179.293 94.8633 181.695C95.7233 178.218 97.3357 174.992 99.0198 171.874C100.525 169.078 102.101 166.282 104.359 164.095C106.652 161.873 110.02 159.579 112.815 160.368C115.18 161.515 115.574 163.952 115.467 166.103Z" fill="#11720E"/>
<path d="M71.823 137.39C71.8588 138.107 72.038 138.788 72.3247 139.434C73.0055 140.903 74.2238 142.086 75.4421 143.126C80.3153 147.176 86.5859 150.043 92.9282 150.438C92.964 149.147 92.2474 147.929 91.5308 146.818C89.4525 143.771 86.9801 141.011 84.3643 138.394C82.1069 136.172 75.4779 130.365 72.468 134.774C71.9663 135.527 71.7513 136.459 71.823 137.39Z" fill="#11720E"/>
<path d="M87.2666 122.301C89.2732 124.882 90.9215 127.678 92.2114 130.653C92.8206 132.051 93.358 133.52 93.8597 134.954C94.5047 136.675 95.1377 138.395 95.7588 140.116C89.1657 138.754 83.4325 133.915 80.9959 127.642C80.3868 126.101 79.9568 124.38 80.3868 122.767C80.8168 121.154 82.3575 119.756 84.0058 119.935C85.3675 120.079 86.4424 121.226 87.2666 122.301Z" fill="#11720E"/>
<path d="M114.821 132.121C115 132.372 115.144 132.695 115.215 133.017C115.753 135.275 114.571 137.641 112.815 139.075C111.023 140.544 108.766 141.261 106.544 141.763C102.961 142.623 99.306 143.089 95.6152 143.161C95.7227 142.122 96.5469 141.297 97.2994 140.58C100.345 137.784 103.642 135.275 107.189 133.089C108.981 131.942 111.059 130.867 113.173 131.261C113.818 131.368 114.427 131.619 114.821 132.121Z" fill="#11720E"/>
<path d="M93.0352 164.31C93.9668 160.403 95.9734 156.317 98.2308 153.019C100.058 150.331 106.938 142.373 110.915 144.703C111.919 145.312 112.17 146.639 112.026 147.786C111.596 151.263 108.622 153.843 105.791 155.922C103.606 157.571 101.384 159.148 99.1266 160.618C97.3709 161.765 95.0418 163.844 93.0352 164.31Z" fill="#11720E"/>
<path d="M71.1419 155.671C70.7836 156.46 70.6044 157.392 70.6402 158.431C70.7119 160.116 71.8227 161.621 73.2202 162.553C74.6176 163.449 76.3017 163.879 77.95 164.166C82.7515 164.991 87.7322 164.847 92.4621 163.664C89.6313 159.686 84.7223 153.915 79.9208 152.409C76.5167 151.334 72.5752 152.624 71.1419 155.671Z" fill="#11720E"/>
<path d="M74.116 180.618C77.4125 181.514 80.8883 181.514 84.2565 181.263C87.6247 181.012 90.9571 180.582 94.2537 179.901C92.3904 176.424 88.8072 174.274 85.3673 172.374C83.3965 171.334 81.3899 170.259 79.2042 169.865C77.9142 169.614 76.5884 169.614 75.2626 169.829C73.4352 170.116 71.6077 170.94 70.4253 172.374C69.2428 173.808 68.8128 175.922 69.6369 177.607C70.4611 179.256 72.3244 180.152 74.116 180.618Z" fill="#11720E"/>
<path d="M59.4606 147.928C58.6723 144.738 55.1607 142.946 53.7633 139.971C52.115 136.458 53.6916 132.336 55.3041 128.787C57.7407 123.411 60.1773 118.034 62.6139 112.658C63.4022 110.901 64.2263 109.109 65.6238 107.819C67.0571 106.528 69.207 105.883 70.927 106.743C74.2235 108.428 73.0052 113.374 73.8294 116.995C75.2627 123.267 83.6116 126.278 84.5432 132.659C85.224 137.569 81.0317 142.157 81.5691 147.104C82.1066 152.05 87.0515 155.276 88.8789 159.864C90.8139 164.632 89.1297 169.972 87.4815 174.847C86.729 176.998 85.7973 179.364 83.7907 180.403C81.605 181.55 78.9534 180.726 76.6601 179.901C71.5361 178.073 66.2688 176.173 62.148 172.625C58.0273 169.04 55.3041 163.341 56.7374 158.072C57.7048 154.631 60.3206 151.405 59.4606 147.928Z" fill="#18C474"/>
<path d="M58.3857 130.006C61.2762 133.519 64.1667 137.031 67.0572 140.544" stroke="#11720E" stroke-width="1.5" stroke-linecap="round" stroke-linejoin="round"/>
<path d="M75.2624 129.361C73.4708 136.351 72.2166 143.52 71.5 150.689" stroke="#11720E" stroke-width="1.5" stroke-linecap="round" stroke-linejoin="round"/>
<path d="M62.6143 161.979C64.597 163.58 66.5678 165.181 68.5266 166.782C71.8948 169.506 75.2272 172.23 78.6313 174.882" stroke="#11720E" stroke-width="1.5" stroke-linecap="round" stroke-linejoin="round"/>
<path d="M81.9988 158.467C80.888 163.521 80.2072 168.647 79.9922 173.808" stroke="#11720E" stroke-width="1.5" stroke-linecap="round" stroke-linejoin="round"/>
<path d="M76.5522 145.742C75.3339 150.796 74.4739 155.922 74.0439 161.119" stroke="#11720E" stroke-width="1.5" stroke-linecap="round" stroke-linejoin="round"/>
<path d="M62.4346 155.098C65.9461 157.392 69.601 159.435 73.3634 161.227" stroke="#11720E" stroke-width="1.5" stroke-linecap="round" stroke-linejoin="round"/>
<path d="M63.9756 120.938C64.6564 124.629 65.7672 128.25 67.2005 131.691" stroke="#11720E" stroke-width="1.5" stroke-linecap="round" stroke-linejoin="round"/>
<path d="M70.9268 120.795C70.031 124.989 68.9202 129.147 67.5586 133.197" stroke="#11720E" stroke-width="1.5" stroke-linecap="round" stroke-linejoin="round"/>
<path d="M71.3572 158.789C66.3407 144.201 65.0865 128.357 67.7023 113.195C67.344 115.203 67.559 117.461 67.559 119.504C67.5829 121.655 67.6545 123.805 67.774 125.956C68.0248 130.221 68.4906 134.523 69.2072 138.752C70.5689 147.211 72.8621 155.563 75.9437 163.592C79.0253 171.585 82.931 179.292 87.625 186.497C88.6283 188.05 89.6675 189.579 90.7424 191.085C91.5666 192.232 93.609 194.024 93.394 195.529C93.2149 196.712 92.1399 196.497 91.3158 196.031C90.3841 195.565 89.8108 194.633 89.2733 193.737C82.4652 182.518 75.6212 171.191 71.3572 158.789Z" fill="#11720E"/>
<path d="M286.519 252.691L213.426 271.766L178.378 268.669L112.044 211.378L198.71 186.007L286.519 252.691Z" fill="white" stroke="#E7E7E7"/>
<path d="M178.173 269.153L202.145 262.809L213.468 272.271L178.173 269.153Z" fill="#D2DAFF"/>
<path d="M210.1 203.129L137.289 223.847L135.748 222.557L208.38 201.803L210.1 203.129Z" fill="#D2DAFF"/>
<path d="M185.305 205.423L153.45 214.563L151.873 213.273L183.656 204.133L185.305 205.423Z" fill="#D2DAFF"/>
<path d="M237.369 224.098L161.87 244.816L160.365 243.525L235.685 222.771L237.369 224.098Z" fill="#D2DAFF"/>
<path d="M232.854 220.585L157.785 241.339L156.244 240.049L231.134 219.295L232.854 220.585Z" fill="#D2DAFF"/>
<path d="M246.469 231.052L170.075 251.806L168.534 250.515L244.785 229.762L246.469 231.052Z" fill="#D2DAFF"/>
<path d="M251.02 234.565L174.16 255.282L172.619 253.992L249.3 233.238L251.02 234.565Z" fill="#D2DAFF"/>
<path d="M255.535 238.04L178.245 258.794L176.74 257.468L253.851 236.75L255.535 238.04Z" fill="#D2DAFF"/>
<path d="M260.086 241.519L182.366 262.273L180.825 260.982L258.402 240.229L260.086 241.519Z" fill="#D2DAFF"/>
<path d="M264.637 245.031L186.451 265.749L184.91 264.459L262.953 243.705L264.637 245.031Z" fill="#D2DAFF"/>
<path d="M241.919 227.574L165.99 248.328L164.449 247.002L240.234 226.248L241.919 227.574Z" fill="#D2DAFF"/>
<path d="M214.543 206.678L161.082 221.804L159.505 220.514L212.823 205.352L214.543 206.678Z" fill="#D2DAFF"/>
<path d="M219.094 210.156L165.31 225.282L163.733 223.991L217.374 208.865L219.094 210.156Z" fill="#D2DAFF"/>
<path d="M223.609 213.668L169.539 228.794L167.962 227.468L221.925 212.342L223.609 213.668Z" fill="#D2DAFF"/>
<path d="M228.16 217.145L173.731 232.271L172.154 230.98L226.476 215.818L228.16 217.145Z" fill="#D2DAFF"/>
<path d="M171.043 232.988L153.808 237.791L139.977 225.998L156.889 221.195L171.043 232.988Z" fill="#00C1B2" fill-opacity="0.46"/>
<path d="M206.052 20.4648V169.401H106.363V20.4648H206.052Z" fill="white" stroke="#E7E7E7"/>
<path d="M196.342 51.8984V53.8018H116.074V51.8984H196.342Z" fill="#D2DAFF" stroke="#E7E7E7"/>
<path d="M173.589 44.1211V46.0244H138.792V44.1211H173.589Z" fill="#D2DAFF" stroke="#E7E7E7"/>
<path d="M196.342 98.4609V100.364H116.074V98.4609H196.342Z" fill="#D2DAFF" stroke="#E7E7E7"/>
<path d="M196.342 90.7188V92.6221H116.074V90.7188H196.342Z" fill="#D2DAFF" stroke="#E7E7E7"/>
<path d="M196.342 113.98V115.884H116.074V113.98H196.342Z" fill="#D2DAFF" stroke="#E7E7E7"/>
<path d="M196.342 121.725V123.628H116.074V121.725H196.342Z" fill="#D2DAFF" stroke="#E7E7E7"/>
<path d="M196.342 129.502V131.405H116.074V129.502H196.342Z" fill="#D2DAFF" stroke="#E7E7E7"/>
<path d="M196.342 137.244V139.147H116.074V137.244H196.342Z" fill="#D2DAFF" stroke="#E7E7E7"/>
<path d="M196.342 144.986V146.89H116.074V144.986H196.342Z" fill="#D2DAFF" stroke="#E7E7E7"/>
<path d="M196.342 106.238V108.142H116.074V106.238H196.342Z" fill="#D2DAFF" stroke="#E7E7E7"/>
<path d="M196.199 59.7148V61.6182H137.896V59.7148H196.199Z" fill="#D2DAFF" stroke="#E7E7E7"/>
<path d="M196.199 67.457V69.3604H137.896V67.457H196.199Z" fill="#D2DAFF" stroke="#E7E7E7"/>
<path d="M196.199 75.2344V77.1016H137.896V75.2344H196.199Z" fill="#D2DAFF" stroke="#E7E7E7"/>
<path d="M196.199 82.9766V84.8799H137.896V82.9766H196.199Z" fill="#D2DAFF" stroke="#E7E7E7"/>
<path d="M134.029 59.6426V84.8086H116.218V59.6426H134.029Z" fill="#00C1B2" fill-opacity="0.46" stroke="#E7E7E7"/>
<path d="M87.4814 125.204L163.41 110.902C163.41 110.902 166.348 112.264 167.638 114.63L228.696 102.156L210.386 210.226L100.524 250.193L87.4814 125.204Z" fill="#00C1B2"/>
<path d="M231.348 107.533L96.0811 140.151L100.524 250.193L209.741 206.678L231.348 107.533Z" fill="#C4C4C3"/>
<path d="M236.436 105.203L101.169 137.821L100.524 250.193L214.829 204.312L236.436 105.203Z" fill="white"/>
<path d="M241.954 107.461L106.688 140.079L100.524 250.192L220.348 206.606L241.954 107.461Z" fill="#DFDFE0"/>
<path d="M244.283 111.332L109.017 143.95L100.524 250.192L224.182 205.208L244.283 111.332Z" fill="#EAE9E5"/>
<path d="M111.238 153.952L190.213 134.955C190.213 134.955 191.216 131.621 194.692 130.797C198.167 129.936 256.646 116.459 256.646 116.459L227.335 204.062L100.524 250.194L111.238 153.952Z" fill="#0A2867"/>
<path fill-rule="evenodd" clip-rule="evenodd" d="M298.032 54.1958L220.706 71.9028C220.252 72.0223 219.81 72.0701 219.38 72.0462C220.348 89.9683 208.38 106.492 190.285 110.65C170.111 115.274 149.973 102.621 145.351 82.441C140.729 62.2249 153.341 42.1163 173.551 37.4924C192.47 33.1553 211.354 43.9802 217.445 61.974C217.732 61.8545 218.031 61.7589 218.341 61.6872L295.703 43.9802C298.534 43.335 301.365 45.0914 302.01 47.9231C302.655 50.7189 300.863 53.5506 298.032 54.1958ZM211.927 67.2072C208.129 50.6472 191.61 40.2524 175.056 44.0519C158.501 47.8514 148.146 64.3755 151.908 80.9355C155.706 97.4597 172.261 107.854 188.78 104.055C205.334 100.291 215.69 83.7314 211.927 67.2072Z" fill="#FED070"/>
<g style="mix-blend-mode:lighten" opacity="0.52">
<path d="M211.928 67.2081C215.69 83.7322 205.335 100.292 188.78 104.056C172.261 107.855 155.707 97.4605 151.909 80.9364C148.146 64.3764 158.502 47.8522 175.056 44.0527C191.611 40.2533 208.129 50.6481 211.928 67.2081Z" fill="#D6F0FE"/>
</g>
</svg>
